<?xml version="1.0" encoding="utf-8"?>
<!-- Generator: Adobe Illustrator 25.0.0, SVG Export Plug-In . SVG Version: 6.00 Build 0)  -->
<svg version="1.1" id="Layer_1" xmlns="http://www.w3.org/2000/svg" xmlns:xlink="http://www.w3.org/1999/xlink" x="0px" y="0px"
	 viewBox="0 0 190.7 190.7" style="enable-background:new 0 0 190.7 190.7;" xml:space="preserve">
<style type="text/css">
	.st0{fill:rgb(214, 214, 214);}
</style>
<g>
	<path class="st0" d="M95.3,190.7C42.8,190.7,0,147.9,0,95.3C0,42.8,42.8,0,95.3,0s95.3,42.8,95.3,95.3
		C190.7,147.9,147.9,190.7,95.3,190.7z M95.3,2C43.9,2,2,43.9,2,95.3s41.9,93.3,93.3,93.3s93.3-41.9,93.3-93.3S146.8,2,95.3,2z"/>
</g>
<g>
	<g>
		<path class="st0" d="M61.7,94.6c-0.2,0-0.3,0-0.5-0.1c-0.9-0.3-1.3-1.2-1.1-2c6-18.9,19.8-31.2,35.2-31.2
			c9.5,0,18.7,4.7,25.7,13.3c0.6,0.7,0.5,1.7-0.2,2.3c-0.7,0.6-1.7,0.5-2.3-0.2c-6.4-7.8-14.6-12.1-23.2-12.1
			c-13.9,0-26.5,11.3-32.1,28.9C63,94.1,62.4,94.6,61.7,94.6z"/>
	</g>
	<g>
		<path class="st0" d="M122.3,119.3c-0.9,0-1.6-0.7-1.6-1.6v-6.6c0-19.2-11.4-34.9-25.3-34.9c-2.7,0-5.4,0.6-7.9,1.7
			c-0.8,0.4-1.8,0-2.2-0.8c-0.4-0.8,0-1.8,0.8-2.2c3-1.3,6.1-2,9.2-2c15.8,0,28.6,17.1,28.6,38.1v6.6
			C123.9,118.5,123.2,119.3,122.3,119.3z"/>
	</g>
	<g>
		<path class="st0" d="M68.4,127.5c-0.9,0-1.6-0.7-1.6-1.6v-14.8c0-11.4,3.8-22.1,10.4-29.4c0.6-0.7,1.6-0.7,2.3-0.1
			c0.7,0.6,0.7,1.6,0.1,2.3c-6.1,6.7-9.5,16.6-9.5,27.2v14.8C70,126.7,69.3,127.5,68.4,127.5z"/>
	</g>
	<g>
		<path class="st0" d="M154.8,95.3c0-32.8-26.7-59.4-59.4-59.4c-32.8,0-59.4,26.7-59.4,59.4c0,13.4,4.5,25.8,12,35.7
			c0,0.1,0.1,0.1,0.1,0.2c8.8,11.6,21.3,19.4,35.2,22.3c0.2,0,0.3,0.1,0.5,0.1c0.8,0.1,1.5,0.3,2.3,0.4c0.4,0.1,0.8,0.1,1.1,0.2
			c0.6,0.1,1.2,0.2,1.9,0.2c0.6,0.1,1.2,0.1,1.8,0.2c0.5,0,0.9,0.1,1.4,0.1c1.1,0.1,2.2,0.1,3.3,0.1c1.1,0,2.2,0,3.3-0.1
			c0.5,0,0.9-0.1,1.4-0.1c0.6,0,1.2-0.1,1.8-0.2c0.6-0.1,1.2-0.2,1.9-0.2c0.4-0.1,0.8-0.1,1.1-0.2c0.8-0.1,1.5-0.3,2.3-0.4
			c0.2,0,0.3-0.1,0.5-0.1c13.9-2.9,26.3-10.6,35.2-22.3c0-0.1,0.1-0.1,0.1-0.2C150.3,121.1,154.8,108.7,154.8,95.3z M133.5,136.4
			v-24c0-10.3-2.3-20.2-6.6-28.7c-0.4-0.8-1.4-1.1-2.2-0.7c-0.8,0.4-1.1,1.4-0.7,2.2c4.1,8,6.2,17.4,6.2,27.2v26.8
			c-2,1.6-4.1,3.1-6.4,4.4v-15.4c0-0.9-0.7-1.6-1.6-1.6c-0.9,0-1.6,0.7-1.6,1.6v17.2c-2.3,1.1-4.6,2.1-7,3v-38.2
			c0-1.8-0.1-3.6-0.4-5.3c-0.1-0.9-1-1.5-1.9-1.3c-0.9,0.1-1.5,1-1.3,1.9c0.3,1.6,0.4,3.2,0.4,4.8v39.2c-1.2,0.3-2.4,0.6-3.6,0.9
			c-0.2,0-0.3,0.1-0.5,0.1c-0.7,0.1-1.4,0.3-2.2,0.4c-0.3,0.1-0.6,0.1-1,0.1v-41.5c0-5.6-3.5-10.1-7.9-10.1c-4.4,0-7.9,4.5-7.9,10.1
			v1.9c0,0.9,0.7,1.6,1.6,1.6c0.9,0,1.6-0.7,1.6-1.6v-1.9c0-3.7,2.1-6.8,4.6-6.8c2.5,0,4.6,3.1,4.6,6.8v41.8c-0.1,0-0.2,0-0.2,0
			c-0.4,0-0.9,0.1-1.3,0.1c-1,0.1-2,0.1-3.1,0.1c-1,0-2,0-3.1-0.1c-0.4,0-0.9-0.1-1.3-0.1c-0.1,0-0.2,0-0.2,0V122
			c0-0.9-0.7-1.6-1.6-1.6c-0.9,0-1.6,0.7-1.6,1.6v28.9c-0.3,0-0.6-0.1-1-0.1c-0.7-0.1-1.5-0.2-2.2-0.4c-0.2,0-0.3-0.1-0.5-0.1
			c-1.2-0.3-2.4-0.6-3.6-0.9v-39.2c0-11.6,6.8-21,15.1-21c4.2,0,8.3,2.5,11.2,6.9c0.5,0.8,1.5,1,2.3,0.5c0.8-0.5,1-1.5,0.5-2.3
			c-3.5-5.3-8.5-8.4-13.9-8.4C85.2,86,77,96.9,77,110.2v38.2c-2.4-0.8-4.8-1.8-7-3v-9c0-0.9-0.7-1.6-1.6-1.6c-0.9,0-1.6,0.7-1.6,1.6
			v7.2c-2.2-1.3-4.3-2.8-6.4-4.4v-26.8c0-3,0.2-6,0.6-8.9c0.1-0.9-0.5-1.7-1.4-1.8c-0.9-0.1-1.7,0.5-1.8,1.4
			c-0.4,3.1-0.6,6.2-0.6,9.4v24c-2.3-2.1-4.4-4.4-6.3-6.9c0.1-1.3,0.1-3.6,0.1-7.5v-8.2c0-33.5,19.9-60.7,44.4-60.7
			s44.4,27.2,44.4,60.7v15.9C137.9,132.1,135.8,134.3,133.5,136.4z M95.3,39.2c31,0,56.2,25.2,56.2,56.2c0,10.9-3.1,21-8.5,29.6
			v-11.2c0-35.3-21.4-64-47.7-64c-26.3,0-47.7,28.7-47.7,64c0,0,0,6.4,0,11.2c-5.4-8.6-8.5-18.7-8.5-29.6
			C39.2,64.4,64.4,39.2,95.3,39.2z"/>
	</g>
</g>
</svg>
