<?xml version="1.0" encoding="utf-8"?>
<!-- Generator: Adobe Illustrator 25.0.0, SVG Export Plug-In . SVG Version: 6.00 Build 0)  -->
<svg version="1.1" id="Layer_1" xmlns="http://www.w3.org/2000/svg" xmlns:xlink="http://www.w3.org/1999/xlink" x="0px" y="0px"
	 viewBox="0 0 190.7 190.7" style="enable-background:new 0 0 190.7 190.7;" xml:space="preserve">
<style type="text/css">
	.st0{fill:rgb(214, 214, 214);}
</style>
<g>
	<path class="st0" d="M95.3,190.7C42.8,190.7,0,147.9,0,95.3C0,42.8,42.8,0,95.3,0s95.3,42.8,95.3,95.3
		C190.7,147.9,147.9,190.7,95.3,190.7z M95.3,2C43.9,2,2,43.9,2,95.3s41.9,93.3,93.3,93.3c51.5,0,93.3-41.9,93.3-93.3
		S146.8,2,95.3,2z"/>
</g>
<g>
	<g>
		<path class="st0" d="M104.5,95.3h-6.6l-2-6.5c-0.2-0.5-0.6-0.9-1.2-0.9c-0.5,0-1,0.3-1.2,0.9l-2,6.5h-6.6c-0.5,0-1,0.3-1.2,0.8
			c-0.2,0.5,0,1,0.4,1.4l5.4,4.1l-2.1,6.8c-0.2,0.5,0,1.1,0.5,1.4c0.4,0.3,1,0.3,1.4,0l5.4-4.1l5.4,4.1c0.2,0.2,0.5,0.3,0.7,0.3
			c0.2,0,0.5-0.1,0.7-0.2c0.4-0.3,0.6-0.9,0.5-1.4l-2.1-6.8l5.4-4.1c0.4-0.3,0.6-0.9,0.4-1.4C105.5,95.7,105,95.3,104.5,95.3z
			 M97.7,100.2c-0.4,0.3-0.6,0.8-0.4,1.3l1.2,3.9l-3.1-2.3c-0.2-0.2-0.5-0.3-0.7-0.3c-0.3,0-0.5,0.1-0.7,0.3l-3.1,2.3l1.2-3.9
			c0.2-0.5,0-1-0.4-1.3l-3.2-2.5h3.9c0.5,0,1-0.3,1.2-0.9l1.1-3.6l1.1,3.6c0.2,0.5,0.6,0.9,1.2,0.9h3.9L97.7,100.2z"/>
	</g>
	<g>
		<path class="st0" d="M132.7,95.3h-6.6l-2-6.5c-0.2-0.5-0.6-0.9-1.2-0.9c-0.5,0-1,0.3-1.2,0.9l-2,6.5h-6.6c-0.5,0-1,0.3-1.2,0.8
			c-0.2,0.5,0,1,0.4,1.4l5.4,4.1l-2.1,6.8c-0.2,0.5,0,1.1,0.5,1.4c0.4,0.3,1,0.3,1.4,0l5.4-4.1l5.4,4.1c0.2,0.2,0.5,0.3,0.7,0.3
			c0.2,0,0.5-0.1,0.7-0.2c0.4-0.3,0.6-0.9,0.5-1.4l-2.1-6.8l5.4-4.1c0.4-0.3,0.6-0.9,0.4-1.4C133.6,95.7,133.2,95.3,132.7,95.3z
			 M125.9,100.2c-0.4,0.3-0.6,0.8-0.4,1.3l1.2,3.9l-3.1-2.3c-0.2-0.2-0.5-0.3-0.7-0.3s-0.5,0.1-0.7,0.3l-3.1,2.3l1.2-3.9
			c0.2-0.5,0-1-0.4-1.3l-3.2-2.5h3.9c0.5,0,1-0.3,1.2-0.9l1.1-3.6l1.1,3.6c0.2,0.5,0.6,0.9,1.2,0.9h3.9L125.9,100.2z"/>
	</g>
	<g>
		<path class="st0" d="M75.1,95.3h-6.6l-2-6.5c-0.2-0.5-0.6-0.9-1.2-0.9c-0.5,0-1,0.3-1.2,0.9l-2,6.5h-6.6c-0.5,0-1,0.3-1.2,0.8
			c-0.2,0.5,0,1,0.4,1.4l5.4,4.1l-2.1,6.8c-0.2,0.5,0,1.1,0.5,1.4c0.4,0.3,1,0.3,1.4,0l5.4-4.1l5.4,4.1c0.2,0.2,0.5,0.3,0.7,0.3
			c0.2,0,0.5-0.1,0.7-0.2c0.4-0.3,0.6-0.9,0.5-1.4l-2.1-6.8l5.4-4.1c0.4-0.3,0.6-0.9,0.4-1.4C76.1,95.7,75.6,95.3,75.1,95.3z
			 M68.3,100.2c-0.4,0.3-0.6,0.8-0.4,1.3l1.2,3.9l-3.1-2.3c-0.2-0.2-0.5-0.3-0.7-0.3c-0.3,0-0.5,0.1-0.7,0.3l-3.1,2.3l1.2-3.9
			c0.2-0.5,0-1-0.4-1.3l-3.2-2.5H63c0.5,0,1-0.3,1.2-0.9l1.1-3.6l1.1,3.6c0.2,0.5,0.6,0.9,1.2,0.9h3.9L68.3,100.2z"/>
	</g>
	<g>
		<path class="st0" d="M86.1,85.5c0.2,0,0.5-0.1,0.7-0.2c0.4-0.3,0.6-0.9,0.5-1.4l-2.1-6.8l5.4-4.1c0.4-0.3,0.6-0.9,0.4-1.4
			c-0.2-0.5-0.6-0.8-1.2-0.8h-6.6l-2-6.5c-0.2-0.5-0.6-0.9-1.2-0.9c-0.5,0-1,0.3-1.2,0.9l-2,6.5h-6.6c-0.5,0-1,0.3-1.2,0.8
			c-0.2,0.5,0,1,0.4,1.4l5.4,4.1l-2.1,6.8c-0.2,0.5,0,1.1,0.5,1.4c0.4,0.3,1,0.3,1.4,0l5.4-4.1l5.4,4.1
			C85.6,85.4,85.9,85.5,86.1,85.5z M80.7,78.6c-0.2-0.2-0.5-0.3-0.7-0.3s-0.5,0.1-0.7,0.3L76.2,81l1.2-3.9c0.2-0.5,0-1-0.4-1.3
			l-3.2-2.5h3.9c0.5,0,1-0.3,1.2-0.9l1.1-3.6l1.1,3.6c0.2,0.5,0.6,0.9,1.2,0.9h3.9L83,75.7c-0.4,0.3-0.6,0.8-0.4,1.3l1.2,3.9
			L80.7,78.6z"/>
	</g>
	<g>
		<path class="st0" d="M115.5,85.5c0.2,0,0.5-0.1,0.7-0.2c0.4-0.3,0.6-0.9,0.5-1.4l-2.1-6.8l5.4-4.1c0.4-0.3,0.6-0.9,0.4-1.4
			c-0.2-0.5-0.6-0.8-1.2-0.8h-6.6l-2-6.5c-0.2-0.5-0.6-0.9-1.2-0.9c-0.5,0-1,0.3-1.2,0.9l-2,6.5h-6.6c-0.5,0-1,0.3-1.2,0.8
			c-0.2,0.5,0,1,0.4,1.4l5.4,4.1l-2.1,6.8c-0.2,0.5,0,1.1,0.5,1.4c0.4,0.3,1,0.3,1.4,0l5.4-4.1l5.4,4.1
			C115,85.4,115.2,85.5,115.5,85.5z M110.1,78.6c-0.2-0.2-0.5-0.3-0.7-0.3s-0.5,0.1-0.7,0.3l-3.1,2.3l1.2-3.9c0.2-0.5,0-1-0.4-1.3
			l-3.2-2.5h3.9c0.5,0,1-0.3,1.2-0.9l1.1-3.6l1.1,3.6c0.2,0.5,0.6,0.9,1.2,0.9h3.9l-3.2,2.5c-0.4,0.3-0.6,0.8-0.4,1.3l1.2,3.9
			L110.1,78.6z"/>
	</g>
	<g>
		<path class="st0" d="M136.3,54.9H53.1c-4.7,0-8.6,3.8-8.6,8.6v51.4c0,4.7,3.8,8.6,8.6,8.6h29.7l11,11.9c0.2,0.2,0.6,0.4,0.9,0.4
			c0.3,0,0.7-0.1,0.9-0.4l11-11.9h29.7c4.7,0,8.6-3.8,8.6-8.6V63.5C144.9,58.8,141.1,54.9,136.3,54.9z M142.4,114.9
			c0,3.4-2.7,6.1-6.1,6.1h-30.2c-0.3,0-0.7,0.1-0.9,0.4l-10.5,11.3l-10.5-11.3c-0.2-0.2-0.6-0.4-0.9-0.4H53.1
			c-3.4,0-6.1-2.7-6.1-6.1V63.5c0-3.4,2.7-6.1,6.1-6.1h83.3c3.4,0,6.1,2.7,6.1,6.1V114.9z"/>
	</g>
</g>
</svg>
