<?xml version="1.0" encoding="utf-8"?>
<!-- Generator: Adobe Illustrator 25.0.0, SVG Export Plug-In . SVG Version: 6.00 Build 0)  -->
<svg version="1.1" id="Layer_1" xmlns="http://www.w3.org/2000/svg" xmlns:xlink="http://www.w3.org/1999/xlink" x="0px" y="0px"
	 viewBox="0 0 190.7 190.7" style="enable-background:new 0 0 190.7 190.7;" xml:space="preserve">
<style type="text/css">
	.st0{fill:rgb(214, 214, 214);}
</style>
<g>
	<path class="st0" d="M95.3,190.7C42.8,190.7,0,147.9,0,95.3C0,42.8,42.8,0,95.3,0c52.6,0,95.3,42.8,95.3,95.3
		C190.7,147.9,147.9,190.7,95.3,190.7z M95.3,2C43.9,2,2,43.9,2,95.3s41.9,93.3,93.3,93.3s93.3-41.9,93.3-93.3S146.8,2,95.3,2z"/>
</g>
<g>
	<g>
		<path class="st0" d="M68.5,83.7h20.7c0.4,0,0.7-0.1,0.9-0.4c0.2-0.3,0.4-0.6,0.3-1l-1.3-18.1c0-0.7-0.6-1.2-1.3-1.2H84v-2.6
			c0-2.8-2.3-5.2-5.2-5.2c-2.8,0-5.2,2.3-5.2,5.2V63h-3.9c-0.7,0-1.2,0.5-1.3,1.2l-1.3,18.1c0,0.4,0.1,0.7,0.3,1
			C67.8,83.6,68.2,83.7,68.5,83.7z M69.9,81.1l0.2-2.6h17.5l0.2,2.6H69.9z M76.3,60.5c0-1.4,1.2-2.6,2.6-2.6c1.4,0,2.6,1.2,2.6,2.6
			V63h-5.2V60.5z M73.7,65.6v2.6c0,0.7,0.6,1.3,1.3,1.3s1.3-0.6,1.3-1.3v-2.6h5.2v2.6c0,0.7,0.6,1.3,1.3,1.3s1.3-0.6,1.3-1.3v-2.6
			h2.7L87.4,76H70.3L71,65.6H73.7z"/>
	</g>
	<g>
		<path class="st0" d="M95.6,83.7h24.5c0.7,0,1.3-0.6,1.3-1.3s-0.6-1.3-1.3-1.3H95.6c-0.7,0-1.3,0.6-1.3,1.3S94.9,83.7,95.6,83.7z"
			/>
	</g>
	<g>
		<path class="st0" d="M68.5,91.9h51.7c0.7,0,1.3-0.6,1.3-1.3c0-0.7-0.6-1.3-1.3-1.3H68.5c-0.7,0-1.3,0.6-1.3,1.3
			C67.2,91.3,67.8,91.9,68.5,91.9z"/>
	</g>
	<g>
		<path class="st0" d="M120.2,96.6h-3.9c-0.7,0-1.3,0.6-1.3,1.3s0.6,1.3,1.3,1.3h3.9c0.7,0,1.3-0.6,1.3-1.3S120.9,96.6,120.2,96.6z"
			/>
	</g>
	<g>
		<path class="st0" d="M120.2,104.4h-3.9c-0.7,0-1.3,0.6-1.3,1.3s0.6,1.3,1.3,1.3h3.9c0.7,0,1.3-0.6,1.3-1.3
			S120.9,104.4,120.2,104.4z"/>
	</g>
	<g>
		<path class="st0" d="M120.2,112.1h-3.9c-0.7,0-1.3,0.6-1.3,1.3s0.6,1.3,1.3,1.3h3.9c0.7,0,1.3-0.6,1.3-1.3
			S120.9,112.1,120.2,112.1z"/>
	</g>
	<g>
		<path class="st0" d="M120.2,119.9h-3.9c-0.7,0-1.3,0.6-1.3,1.3s0.6,1.3,1.3,1.3h3.9c0.7,0,1.3-0.6,1.3-1.3
			S120.9,119.9,120.2,119.9z"/>
	</g>
	<g>
		<path class="st0" d="M68.5,99.2h42.6c0.7,0,1.3-0.6,1.3-1.3s-0.6-1.3-1.3-1.3H68.5c-0.7,0-1.3,0.6-1.3,1.3S67.8,99.2,68.5,99.2z"
			/>
	</g>
	<g>
		<path class="st0" d="M68.5,107h42.6c0.7,0,1.3-0.6,1.3-1.3s-0.6-1.3-1.3-1.3H68.5c-0.7,0-1.3,0.6-1.3,1.3S67.8,107,68.5,107z"/>
	</g>
	<g>
		<path class="st0" d="M68.5,114.7h42.6c0.7,0,1.3-0.6,1.3-1.3s-0.6-1.3-1.3-1.3H68.5c-0.7,0-1.3,0.6-1.3,1.3S67.8,114.7,68.5,114.7
			z"/>
	</g>
	<g>
		<path class="st0" d="M112.4,121.2c0-0.7-0.6-1.3-1.3-1.3H68.5c-0.7,0-1.3,0.6-1.3,1.3s0.6,1.3,1.3,1.3h42.6
			C111.8,122.4,112.4,121.9,112.4,121.2z"/>
	</g>
	<g>
		<path class="st0" d="M95.6,76h24.5c0.7,0,1.3-0.6,1.3-1.3c0-0.7-0.6-1.3-1.3-1.3H95.6c-0.7,0-1.3,0.6-1.3,1.3
			C94.3,75.4,94.9,76,95.6,76z"/>
	</g>
	<g>
		<path class="st0" d="M95.6,68.2h24.5c0.7,0,1.3-0.6,1.3-1.3c0-0.7-0.6-1.3-1.3-1.3H95.6c-0.7,0-1.3,0.6-1.3,1.3
			C94.3,67.6,94.9,68.2,95.6,68.2z"/>
	</g>
	<g>
		<path class="st0" d="M95.6,60.5h24.5c0.7,0,1.3-0.6,1.3-1.3c0-0.7-0.6-1.3-1.3-1.3H95.6c-0.7,0-1.3,0.6-1.3,1.3
			C94.3,59.9,94.9,60.5,95.6,60.5z"/>
	</g>
	<g>
		<path class="st0" d="M148.6,130.2h-19.4V54c0-3.6-2.9-6.5-6.5-6.5H55.6c-3.6,0-6.5,2.9-6.5,6.5v36.2c0,0.7,0.6,1.3,1.3,1.3h9v40
			c0,6.4,5.2,11.6,11.6,11.6h67.2c6.4,0,11.6-5.2,11.6-11.6C149.9,130.8,149.3,130.2,148.6,130.2z M51.7,88.9V54
			c0-2.1,1.7-3.9,3.9-3.9c2.1,0,3.9,1.7,3.9,3.9v34.9H51.7z M62.1,131.5c0-7.3,0-68.7,0-77.5c0-1.4-0.5-2.8-1.3-3.9h62
			c2.1,0,3.9,1.7,3.9,3.9v76.2H81.4c-0.7,0-1.3,0.6-1.3,1.3c0,5-4.1,9-9,9S62.1,136.5,62.1,131.5z M138.3,140.5H78.4
			c2.3-1.8,3.9-4.7,4.3-7.7c14.9,0,51.2,0,64.5,0C146.6,137.2,142.8,140.5,138.3,140.5z"/>
	</g>
</g>
</svg>
