<?xml version="1.0" encoding="utf-8"?>
<!-- Generator: Adobe Illustrator 25.0.0, SVG Export Plug-In . SVG Version: 6.00 Build 0)  -->
<svg version="1.1" id="Layer_1" xmlns="http://www.w3.org/2000/svg" xmlns:xlink="http://www.w3.org/1999/xlink" x="0px" y="0px"
	 viewBox="0 0 190.7 190.7" style="enable-background:new 0 0 190.7 190.7;" xml:space="preserve">
<style type="text/css">
	.st0{fill:rgb(214, 214, 214);}
</style>
<g>
	<path class="st0" d="M95.3,190.7C42.8,190.7,0,147.9,0,95.3C0,42.8,42.8,0,95.3,0s95.3,42.8,95.3,95.3
		C190.7,147.9,147.9,190.7,95.3,190.7z M95.3,2C43.9,2,2,43.9,2,95.3s41.9,93.3,93.3,93.3s93.3-41.9,93.3-93.3S146.8,2,95.3,2z"/>
</g>
<g>
	<g>
		<path class="st0" d="M150.9,135.1h-7.7V74.8c0-0.7-0.6-1.3-1.3-1.3h-25.6c-0.7,0-1.3,0.6-1.3,1.3s0.6,1.3,1.3,1.3h24.3v58.9
			c-10.2,0-72.8,0-87.1,0V76.1h24.3c0.7,0,1.3-0.6,1.3-1.3s-0.6-1.3-1.3-1.3H52.2c-0.7,0-1.3,0.6-1.3,1.3v60.2h-7.7
			c-0.7,0-1.3,0.6-1.3,1.3v7.7c0,3.5,2.9,6.4,6.4,6.4h97.4c3.5,0,6.4-2.9,6.4-6.4v-7.7C152.1,135.6,151.6,135.1,150.9,135.1z
			 M120.1,137.6v2.6c0,0.7-0.6,1.3-1.3,1.3H75.3c-0.7,0-1.3-0.6-1.3-1.3v-2.6H120.1z M149.6,144c0,2.1-1.7,3.8-3.8,3.8H48.4
			c-2.1,0-3.8-1.7-3.8-3.8v-6.4c15.2,0,2.7,0,26.9,0v2.6c0,2.1,1.7,3.8,3.8,3.8h43.6c2.1,0,3.8-1.7,3.8-3.8v-2.6
			c24.4,0,11.5,0,26.9,0V144z"/>
	</g>
	<g>
		<path class="st0" d="M91.9,77.4c2.1,0,3.8-1.7,3.8-3.8c0-2.1-1.7-3.8-3.8-3.8c-2.1,0-3.8,1.7-3.8,3.8
			C88.1,75.7,89.8,77.4,91.9,77.4z M91.9,72.3c0.7,0,1.3,0.6,1.3,1.3s-0.6,1.3-1.3,1.3s-1.3-0.6-1.3-1.3S91.2,72.3,91.9,72.3z"/>
	</g>
	<g>
		<path class="st0" d="M98.3,83.8c0,2.1,1.7,3.8,3.8,3.8c2.1,0,3.8-1.7,3.8-3.8c0-2.1-1.7-3.8-3.8-3.8C100.1,80,98.3,81.7,98.3,83.8
			z M103.5,83.8c0,0.7-0.6,1.3-1.3,1.3s-1.3-0.6-1.3-1.3s0.6-1.3,1.3-1.3S103.5,83.1,103.5,83.8z"/>
	</g>
	<g>
		<path class="st0" d="M89.7,86c0.3,0.3,0.6,0.4,0.9,0.4c0.3,0,0.7-0.1,0.9-0.4l12.8-12.8c0.5-0.5,0.5-1.3,0-1.8s-1.3-0.5-1.8,0
			L89.7,84.2C89.2,84.7,89.2,85.5,89.7,86z"/>
	</g>
	<g>
		<path class="st0" d="M124,108.1c0.7,0,1.3-0.6,1.3-1.3c0-8.4-4.4-16.2-11.6-20.5l-1.2-0.7V71.3c0-12-5.3-23.2-14.6-30.7
			c-0.5-0.4-1.2-0.4-1.6,0C87,48.1,81.7,59.3,81.7,71.3v14.4l-1.2,0.7c-7.2,4.3-11.6,12.2-11.6,20.5c0,0.7,0.6,1.3,1.3,1.3h19.2v3.8
			c0,0.7,0.6,1.3,1.3,1.3h1.3v2.7c-1.6,0.2-3,0.8-4.3,1.7c-1.9-1.9-4.5-3.1-7.3-3.1c-3.1,0-5.9,1.4-7.8,3.7
			c-3.3-4.3-8.4-7.1-13.9-7.5V81.2h19.2c0.7,0,1.3-0.6,1.3-1.3s-0.6-1.3-1.3-1.3H57.3c-0.7,0-1.3,0.6-1.3,1.3v51.3
			c0,0.7,0.6,1.3,1.3,1.3h79.4c0.7,0,1.3-0.6,1.3-1.3V80c0-0.7-0.6-1.3-1.3-1.3h-20.5c-0.7,0-1.3,0.6-1.3,1.3s0.6,1.3,1.3,1.3h19.2
			v29.5c-5.5,0.4-10.6,3.2-13.9,7.5c-1.9-2.3-4.8-3.7-7.8-3.7c-2.7,0-5.4,1.1-7.3,3.1c-1.2-0.9-2.7-1.5-4.3-1.7v-2.7h1.3
			c0.7,0,1.3-0.6,1.3-1.3v-3.8H124z M99.6,121c0,0.7,0.6,1.3,1.3,1.3s1.3-0.6,1.3-1.3v-2.4c2.1,0.4,4,1.7,5,3.7l0.3,0.5
			c0.2,0.4,0.7,0.7,1.1,0.7c0.2,0,0.4,0,0.6-0.1c0.6-0.3,0.9-1.1,0.6-1.7l-0.3-0.5c-0.3-0.6-0.7-1.2-1.2-1.8
			c1.4-1.4,3.3-2.2,5.4-2.2c2.6,0,4.9,1.3,6.3,3.4c-0.5,0.8-0.9,1.7-1.2,2.6c-0.3,0.7,0.1,1.4,0.7,1.7c0.2,0.1,0.3,0.1,0.5,0.1
			c0.5,0,1-0.3,1.2-0.8c2.3-6,7.9-10.2,14.3-10.7v16.6H58.6v-16.6c6.3,0.5,12,4.7,14.3,10.7c0.2,0.5,0.7,0.8,1.2,0.8
			c0.2,0,0.3,0,0.5-0.1c0.7-0.3,1-1,0.7-1.7c-0.3-0.9-0.8-1.8-1.2-2.6c1.4-2.1,3.8-3.4,6.3-3.4c2.1,0,4,0.8,5.4,2.2
			c-0.4,0.5-0.8,1.1-1.2,1.8l-0.3,0.5c-0.3,0.6-0.1,1.4,0.6,1.7c0.2,0.1,0.4,0.1,0.6,0.1c0.5,0,0.9-0.3,1.1-0.7l0.3-0.5
			c1-2,2.8-3.4,5-3.7v2.4c0,0.7,0.6,1.3,1.3,1.3s1.3-0.6,1.3-1.3v-7.7h5.1V121z M102.2,110.7H91.9v-2.6h10.3V110.7z M122.6,105.6
			h-10.2v-17C118.4,92.3,122.2,98.7,122.6,105.6z M84.2,71.3c0-10.8,4.7-21,12.8-28.1c8.2,7.1,12.8,17.2,12.8,28.1
			c0,13,0,21.3,0,34.3c-12.3,0-13.3,0-25.6,0C84.2,92.7,84.2,84.3,84.2,71.3z M81.7,105.6H71.5c0.4-6.9,4.3-13.3,10.2-17V105.6z"/>
	</g>
	<g>
		<path class="st0" d="M93.2,123.5c-0.7,0-1.3,0.6-1.3,1.3v1.3c0,0.7,0.6,1.3,1.3,1.3s1.3-0.6,1.3-1.3v-1.3
			C94.5,124.1,93.9,123.5,93.2,123.5z"/>
	</g>
	<g>
		<path class="st0" d="M100.9,127.4c0.7,0,1.3-0.6,1.3-1.3v-1.3c0-0.7-0.6-1.3-1.3-1.3s-1.3,0.6-1.3,1.3v1.3
			C99.6,126.8,100.2,127.4,100.9,127.4z"/>
	</g>
</g>
</svg>
