<?xml version="1.0" encoding="utf-8"?>
<!-- Generator: Adobe Illustrator 25.0.0, SVG Export Plug-In . SVG Version: 6.00 Build 0)  -->
<svg version="1.1" id="Layer_1" xmlns="http://www.w3.org/2000/svg" xmlns:xlink="http://www.w3.org/1999/xlink" x="0px" y="0px"
	 viewBox="0 0 190.7 190.7" style="enable-background:new 0 0 190.7 190.7;" xml:space="preserve">
<style type="text/css">
	.st0{fill:rgb(214, 214, 214);}
</style>
<g>
	<path class="st0" d="M95.3,190.7C42.8,190.7,0,147.9,0,95.3C0,42.8,42.8,0,95.3,0s95.3,42.8,95.3,95.3
		C190.7,147.9,147.9,190.7,95.3,190.7z M95.3,2C43.9,2,2,43.9,2,95.3s41.9,93.3,93.3,93.3s93.3-41.9,93.3-93.3S146.8,2,95.3,2z"/>
</g>
<g>
	<g>
		<path class="st0" d="M80.5,96.6H134c0.7,0,1.3-0.6,1.3-1.3v-37c0-0.4-0.2-0.8-0.6-1.1l-7.5-5l-6.3-6.3c-0.2-0.2-0.6-0.4-0.9-0.4
			H94.5c-0.3,0-0.6,0.1-0.9,0.4c0,0,0,0,0,0l-6.3,6.3l-7.5,5c-0.4,0.2-0.6,0.6-0.6,1.1v37C79.2,96,79.8,96.6,80.5,96.6z M132.7,94.1
			h-24.2V58.6l5.6,4.6c0.2,0.2,0.5,0.3,0.8,0.3c0.3,0,0.6-0.1,0.8-0.3l10.7-8.4l6.3,4.2V94.1z M107.2,54.3l-8.7-6.1h17.4L107.2,54.3
			z M114.9,60.6l-5.6-4.6l10.5-7.4l4.6,4.6L114.9,60.6z M94.7,48.6l10.5,7.4l-5.6,4.6l-9.5-7.4L94.7,48.6z M81.8,59.1l6.3-4.2
			l10.7,8.4c0.2,0.2,0.5,0.3,0.8,0.3c0.3,0,0.6-0.1,0.8-0.3l5.6-4.6v35.5H81.8V59.1z"/>
	</g>
	<g>
		<circle class="st0" cx="112.3" cy="69.8" r="1.3"/>
	</g>
	<g>
		<circle class="st0" cx="112.3" cy="78.8" r="1.3"/>
	</g>
	<g>
		<circle class="st0" cx="112.3" cy="87.7" r="1.3"/>
	</g>
	<g>
		<path class="st0" d="M118.7,68.6c-0.7,0-1.3,0.6-1.3,1.3v3.8V80c0,0.5,0.3,0.9,0.7,1.1l5.1,2.5c0.2,0.1,0.4,0.1,0.6,0.1
			s0.4,0,0.6-0.1l5.1-2.5c0.4-0.2,0.7-0.7,0.7-1.1v-6.4v-3.8c0-0.7-0.6-1.3-1.3-1.3H118.7z M120,71.1h7.6v1.3H120V71.1z M123.8,81.2
			l-3.8-1.9v-4.3h7.6v4.3L123.8,81.2z"/>
	</g>
	<g>
		<path class="st0" d="M63.9,122.1c7.4,0,64.8,0,73.9,0c0.6,0,1.1-0.4,1.2-0.9l14-47.1c0.1-0.4,0-0.8-0.2-1.1
			c-0.2-0.3-0.6-0.5-1-0.5h-12.7c-0.7,0-1.3,0.6-1.3,1.3c0,0.7,0.6,1.3,1.3,1.3h11l-13.3,44.6H75.1l-9.8-44.6h10.1
			c0.7,0,1.3-0.6,1.3-1.3c0-0.7-0.6-1.3-1.3-1.3H64.8l-3.4-15.6c-0.1-0.6-0.6-1-1.2-1H49.9c-0.7,0-1.3,0.6-1.3,1.3
			c0,0.7,0.6,1.3,1.3,1.3h9.2l13.5,61.2h-8.6c-2.8,0-5.1,2.3-5.1,5.1s2.3,5.1,5.1,5.1h12.9c-1.7,1.6-2.7,3.9-2.7,6.4
			c0,4.9,4,8.9,8.9,8.9s8.9-4,8.9-8.9c0-2.5-1-4.8-2.7-6.4h32.1c-1.7,1.6-2.7,3.9-2.7,6.4c0,4.9,4,8.9,8.9,8.9c4.9,0,8.9-4,8.9-8.9
			c0-2.5-1-4.8-2.7-6.4h12.9c0.7,0,1.3-0.6,1.3-1.3s-0.6-1.3-1.3-1.3H63.9c-1.4,0-2.5-1.1-2.5-2.5C61.4,123.2,62.5,122.1,63.9,122.1
			z M134,136.1c0,3.5-2.9,6.4-6.4,6.4c-3.5,0-6.4-2.9-6.4-6.4s2.9-6.4,6.4-6.4C131.1,129.7,134,132.6,134,136.1z M89.4,136.1
			c0,3.5-2.9,6.4-6.4,6.4s-6.4-2.9-6.4-6.4s2.9-6.4,6.4-6.4S89.4,132.6,89.4,136.1z"/>
	</g>
	<g>
		<path class="st0" d="M127.6,139.9c2.1,0,3.8-1.7,3.8-3.8s-1.7-3.8-3.8-3.8s-3.8,1.7-3.8,3.8S125.5,139.9,127.6,139.9z
			 M127.6,134.8c0.7,0,1.3,0.6,1.3,1.3s-0.6,1.3-1.3,1.3s-1.3-0.6-1.3-1.3S126.9,134.8,127.6,134.8z"/>
	</g>
	<g>
		<path class="st0" d="M83,139.9c2.1,0,3.8-1.7,3.8-3.8s-1.7-3.8-3.8-3.8c-2.1,0-3.8,1.7-3.8,3.8S80.9,139.9,83,139.9z M83,134.8
			c0.7,0,1.3,0.6,1.3,1.3s-0.6,1.3-1.3,1.3s-1.3-0.6-1.3-1.3S82.3,134.8,83,134.8z"/>
	</g>
	<g>
		<path class="st0" d="M58.8,76.2c0-0.7-0.6-1.3-1.3-1.3H44.8c-0.7,0-1.3,0.6-1.3,1.3c0,0.7,0.6,1.3,1.3,1.3h12.7
			C58.3,77.5,58.8,76.9,58.8,76.2z"/>
	</g>
	<g>
		<path class="st0" d="M65.2,96.6c0-0.7-0.6-1.3-1.3-1.3H55c-0.7,0-1.3,0.6-1.3,1.3c0,0.7,0.6,1.3,1.3,1.3h8.9
			C64.6,97.9,65.2,97.3,65.2,96.6z"/>
	</g>
	<g>
		<path class="st0" d="M61.4,86.4c0-0.7-0.6-1.3-1.3-1.3h-8.9c-0.7,0-1.3,0.6-1.3,1.3s0.6,1.3,1.3,1.3h8.9
			C60.8,87.7,61.4,87.1,61.4,86.4z"/>
	</g>
</g>
</svg>
