<?xml version="1.0" encoding="utf-8"?>
<!-- Generator: Adobe Illustrator 25.0.0, SVG Export Plug-In . SVG Version: 6.00 Build 0)  -->
<svg version="1.1" id="Layer_1" xmlns="http://www.w3.org/2000/svg" xmlns:xlink="http://www.w3.org/1999/xlink" x="0px" y="0px"
	 viewBox="0 0 190.7 190.7" style="enable-background:new 0 0 190.7 190.7;" xml:space="preserve">
<style type="text/css">
	.st0{fill:rgb(214, 214, 214);}
</style>
<g>
	<path class="st0" d="M95.3,190.7C42.8,190.7,0,147.9,0,95.3C0,42.8,42.8,0,95.3,0s95.3,42.8,95.3,95.3
		C190.7,147.9,147.9,190.7,95.3,190.7z M95.3,2C43.9,2,2,43.9,2,95.3s41.9,93.3,93.3,93.3c51.5,0,93.3-41.9,93.3-93.3
		S146.8,2,95.3,2z"/>
</g>
<g>
	<g>
		<path class="st0" d="M109,90.2v-41c0-0.7-0.6-1.3-1.3-1.3H38.5c-0.7,0-1.3,0.6-1.3,1.3v41c0,0.7,0.6,1.3,1.3,1.3h69.3
			C108.4,91.5,109,90.9,109,90.2z M106.4,88.9H39.7V50.4h66.7V88.9z"/>
	</g>
	<g>
		<path class="st0" d="M43.6,79.9c2.8,0,5.1,2.3,5.1,5.1c0,0.7,0.6,1.3,1.3,1.3h46.2c0.7,0,1.3-0.6,1.3-1.3c0-2.8,2.3-5.1,5.1-5.1
			c0.7,0,1.3-0.6,1.3-1.3v-18c0-0.7-0.6-1.3-1.3-1.3c-2.8,0-5.1-2.3-5.1-5.1c0-0.7-0.6-1.3-1.3-1.3H50c-0.7,0-1.3,0.6-1.3,1.3
			c0,2.8-2.3,5.1-5.1,5.1c-0.7,0-1.3,0.6-1.3,1.3v18C42.3,79.4,42.9,79.9,43.6,79.9z M44.9,61.9c3.2-0.5,5.8-3.1,6.3-6.3H95
			c0.5,3.2,3.1,5.8,6.3,6.3v15.6c-3.2,0.5-5.8,3.1-6.3,6.3H51.2c-0.5-3.2-3.1-5.8-6.3-6.3V61.9z"/>
	</g>
	<g>
		<path class="st0" d="M146.2,99.2H76.9c-0.7,0-1.3,0.6-1.3,1.3c0,15.4,0,26.6,0,41c0,0.7,0.6,1.3,1.3,1.3h69.3
			c0.7,0,1.3-0.6,1.3-1.3c0-14.4,0-25.7,0-41C147.5,99.8,146.9,99.2,146.2,99.2z M144.9,101.7v5.1H78.2v-5.1H144.9z M144.9,114.6
			H78.2v-5.1h66.7V114.6z M78.2,140.2v-23.1h66.7v23.1H78.2z"/>
	</g>
	<g>
		<path class="st0" d="M70.5,73.5c0-0.7-0.6-1.2-1.3-1.2S68,72.9,68,73.6c0,2.4,1.6,4.3,3.8,4.9v1.4c0,0.7,0.6,1.3,1.3,1.3
			s1.3-0.6,1.3-1.3v-1.4c2.2-0.5,3.8-2.5,3.8-4.9c0-2.2-1.4-4.1-3.4-4.8l-0.4-0.1v-5.2c0.8,0.4,1.3,1.2,1.3,2.1v0.1
			c0,0.7,0.6,1.2,1.3,1.2s1.3-0.6,1.3-1.3c0-2.4-1.6-4.3-3.8-4.9v-1.4c0-0.7-0.6-1.3-1.3-1.3s-1.3,0.6-1.3,1.3v1.4
			c-2.2,0.5-3.8,2.5-3.8,4.9c0,2.2,1.4,4.1,3.4,4.8l0.4,0.1v5.2C71,75.4,70.5,74.5,70.5,73.5z M75.7,73.6c0,0.9-0.5,1.7-1.3,2.1
			v-4.3C75.1,72,75.7,72.7,75.7,73.6z M70.5,65.7c0-0.9,0.5-1.7,1.3-2.1v4.3C71,67.4,70.5,66.6,70.5,65.7z"/>
	</g>
	<g>
		<path class="st0" d="M88.5,73.5c2.1,0,3.8-1.7,3.8-3.8c0-2.1-1.7-3.8-3.8-3.8c-2.1,0-3.8,1.7-3.8,3.8
			C84.6,71.8,86.4,73.5,88.5,73.5z M88.5,68.4c0.7,0,1.3,0.6,1.3,1.3c0,0.7-0.6,1.3-1.3,1.3s-1.3-0.6-1.3-1.3
			C87.2,69,87.8,68.4,88.5,68.4z"/>
	</g>
	<g>
		<path class="st0" d="M57.7,73.5c2.1,0,3.8-1.7,3.8-3.8c0-2.1-1.7-3.8-3.8-3.8s-3.8,1.7-3.8,3.8C53.8,71.8,55.6,73.5,57.7,73.5z
			 M57.7,68.4c0.7,0,1.3,0.6,1.3,1.3c0,0.7-0.6,1.3-1.3,1.3c-0.7,0-1.3-0.6-1.3-1.3C56.4,69,57,68.4,57.7,68.4z"/>
	</g>
	<g>
		<path class="st0" d="M135.9,126.1c-0.9,0-1.8,0.3-2.6,0.7c-0.8-0.5-1.7-0.7-2.6-0.7c-2.8,0-5.1,2.3-5.1,5.1s2.3,5.1,5.1,5.1
			c0.9,0,1.8-0.3,2.6-0.7c0.8,0.5,1.7,0.7,2.6,0.7c2.8,0,5.1-2.3,5.1-5.1S138.8,126.1,135.9,126.1z M130.8,133.8
			c-1.4,0-2.6-1.2-2.6-2.6s1.2-2.6,2.6-2.6c0.2,0,0.4,0,0.6,0.1c-0.4,0.7-0.6,1.6-0.6,2.5c0,0.9,0.3,1.8,0.6,2.5
			C131.2,133.8,131,133.8,130.8,133.8z M135.9,133.8c-1.3,0-2.6-1.1-2.6-2.6c0-1.5,1.2-2.6,2.6-2.6c1.4,0,2.6,1.2,2.6,2.6
			S137.4,133.8,135.9,133.8z"/>
	</g>
	<g>
		<path class="st0" d="M98.7,132.5H84.6c-0.7,0-1.3,0.6-1.3,1.3c0,0.7,0.6,1.3,1.3,1.3h14.1c0.7,0,1.3-0.6,1.3-1.3
			C100,133.1,99.5,132.5,98.7,132.5z"/>
	</g>
	<g>
		<path class="st0" d="M106.4,127.4H84.6c-0.7,0-1.3,0.6-1.3,1.3c0,0.7,0.6,1.3,1.3,1.3h21.8c0.7,0,1.3-0.6,1.3-1.3
			C107.7,128,107.1,127.4,106.4,127.4z"/>
	</g>
	<g>
		<path class="st0" d="M114.1,71H127v18.7l-2.9-2.9c-0.5-0.5-1.3-0.5-1.8,0s-0.5,1.3,0,1.8l5.1,5.1c0.2,0.2,0.6,0.4,0.9,0.4
			c0.3,0,0.7-0.1,0.9-0.4l5.1-5.1c0.5-0.5,0.5-1.3,0-1.8c-0.5-0.5-1.3-0.5-1.8,0l-2.9,2.9v-20c0-0.7-0.6-1.3-1.3-1.3h-14.1
			c-0.7,0-1.3,0.6-1.3,1.3S113.4,71,114.1,71z"/>
	</g>
	<g>
		<path class="st0" d="M68,119.7H55.1V101l2.9,2.9c0.5,0.5,1.3,0.5,1.8,0c0.5-0.5,0.5-1.3,0-1.8L54.8,97c-0.1-0.1-0.3-0.2-0.4-0.3
			c-0.3-0.1-0.7-0.1-1,0c-0.2,0.1-0.3,0.2-0.4,0.3l-5.1,5.1c-0.5,0.5-0.5,1.3,0,1.8c0.5,0.5,1.3,0.5,1.8,0l2.9-2.9v20
			c0,0.7,0.6,1.3,1.3,1.3H68c0.7,0,1.3-0.6,1.3-1.3S68.7,119.7,68,119.7z"/>
	</g>
</g>
</svg>
