<?xml version="1.0" encoding="utf-8"?>
<!-- Generator: Adobe Illustrator 25.0.0, SVG Export Plug-In . SVG Version: 6.00 Build 0)  -->
<svg version="1.1" id="Layer_1" xmlns="http://www.w3.org/2000/svg" xmlns:xlink="http://www.w3.org/1999/xlink" x="0px" y="0px"
	 viewBox="0 0 190.7 190.7" style="enable-background:new 0 0 190.7 190.7;" xml:space="preserve">
<style type="text/css">
	.st0{fill:rgb(214, 214, 214);}
</style>
<g>
	<path class="st0" d="M95.3,191.4C42.8,191.4,0,148.6,0,96C0,43.5,42.8,0.7,95.3,0.7s95.3,42.8,95.3,95.3
		C190.7,148.6,147.9,191.4,95.3,191.4z M95.3,2.7C43.9,2.7,2,44.6,2,96s41.9,93.3,93.3,93.3c51.5,0,93.3-41.9,93.3-93.3
		S146.8,2.7,95.3,2.7z"/>
</g>
<g>
	<g>
		<path class="st0" d="M93,138.3c0.4,0,0.7-0.2,1-0.4c1.6-1.6,38.4-40.2,38.4-61.5c0-21.7-17.7-39.4-39.4-39.4S53.6,54.6,53.6,76.3
			c0,21.3,36.9,59.9,38.4,61.5C92.3,138.1,92.6,138.3,93,138.3z M93,39.7c20.2,0,36.6,16.4,36.6,36.6c0,18.3-30.6,52.1-36.6,58.5
			c-6-6.5-36.6-40.2-36.6-58.5C56.4,56.1,72.8,39.7,93,39.7z"/>
	</g>
	<g>
		<path class="st0" d="M111.3,96c0.8,0,1.4-0.6,1.4-1.4V72.7c1.7-1,2.8-2.8,2.8-4.9v-4.2c0-0.2-0.1-0.5-0.2-0.6l-4.2-8.5
			c-0.2-0.5-0.7-0.8-1.3-0.8H76.1c-0.5,0-1,0.3-1.3,0.8L70.6,63c-0.1,0.1-0.2,0.4-0.2,0.6v4.2c0,2.1,1.1,3.9,2.8,4.9v21.9
			c0,0.8,0.6,1.4,1.4,1.4C124.1,96,83.7,96,111.3,96z M98.6,93.2v-8.5c0-1.6,1.3-2.8,2.8-2.8c1.6,0,2.8,1.3,2.8,2.8v8.5H98.6z
			 M112.7,67.9c0,1.6-1.3,2.8-2.8,2.8c-1.6,0-2.8-1.3-2.8-2.8v-2.8h5.6V67.9z M81.7,65.1h5.6v2.8c0,1.6-1.3,2.8-2.8,2.8
			s-2.8-1.3-2.8-2.8V65.1z M95.6,62.2h-5.1l0.9-5.6h3.2L95.6,62.2z M90.2,65.1h5.6v2.8c0,1.6-1.3,2.8-2.8,2.8s-2.8-1.3-2.8-2.8V65.1
			z M98.6,65.1h5.6v2.8c0,1.6-1.3,2.8-2.8,2.8c-1.6,0-2.8-1.3-2.8-2.8V65.1z M109,56.6l2.8,5.6h-5.2l-1.9-5.6H109z M101.9,56.6
			l1.9,5.6h-5.3l-0.9-5.6H101.9z M87.6,62.2h-5.3l1.9-5.6h4.4L87.6,62.2z M77,56.6h4.2l-1.9,5.6h-5.2L77,56.6z M73.3,67.9v-2.8h5.6
			v2.8c0,1.6-1.3,2.8-2.8,2.8S73.3,69.4,73.3,67.9z M76.1,73.5c1.7,0,3.2-0.8,4.2-1.9c1,1.2,2.5,1.9,4.2,1.9c1.7,0,3.2-0.8,4.2-1.9
			c1,1.2,2.5,1.9,4.2,1.9c1.7,0,3.2-0.8,4.2-1.9c1,1.2,2.5,1.9,4.2,1.9c1.7,0,3.2-0.8,4.2-1.9c1,1.2,2.5,1.9,4.2,1.9v19.7h-2.8v-8.5
			c0-3.1-2.5-5.6-5.6-5.6c-3.1,0-5.6,2.5-5.6,5.6v8.5H76.1V73.5z"/>
	</g>
	<g>
		<path class="st0" d="M91.6,76.3H80.3c-0.8,0-1.4,0.6-1.4,1.4v8.5c0,0.8,0.6,1.4,1.4,1.4h11.3c0.8,0,1.4-0.6,1.4-1.4v-8.5
			C93,77,92.4,76.3,91.6,76.3z M90.2,80.6h-2.8v-1.4h2.8V80.6z M84.6,79.1v1.4h-2.8v-1.4H84.6z M81.7,83.4h2.8v1.4h-2.8V83.4z
			 M87.4,84.8v-1.4h2.8v1.4H87.4z"/>
	</g>
	<g>
		<path class="st0" d="M113.5,121c-0.8-0.2-1.5,0.3-1.7,1c-0.2,0.8,0.3,1.5,1,1.7c11.3,2.9,18.3,7.9,18.3,13.2
			c0,8.4-17.4,15.5-38,15.5s-38-7.1-38-15.5c0-5.3,7-10.3,18.3-13.2c0.8-0.2,1.2-1,1-1.7c-0.2-0.8-1-1.2-1.7-1
			c-12.8,3.2-20.4,9.2-20.4,15.9c0,10.3,17.9,18.3,40.9,18.3s40.9-8,40.9-18.3C133.9,130.2,126.2,124.2,113.5,121z"/>
	</g>
</g>
</svg>
