<?xml version="1.0" encoding="utf-8"?>
<!-- Generator: Adobe Illustrator 25.0.0, SVG Export Plug-In . SVG Version: 6.00 Build 0)  -->
<svg version="1.1" id="Layer_1" xmlns="http://www.w3.org/2000/svg" xmlns:xlink="http://www.w3.org/1999/xlink" x="0px" y="0px"
	 viewBox="0 0 190.7 190.7" style="enable-background:new 0 0 190.7 190.7;" xml:space="preserve">
<style type="text/css">
	.st0{fill:rgb(214, 214, 214);}
</style>
<g>
	<path class="st0" d="M95.3,190.7C42.8,190.7,0,147.9,0,95.3C0,42.8,42.8,0,95.3,0s95.3,42.8,95.3,95.3
		C190.7,147.9,147.9,190.7,95.3,190.7z M95.3,2C43.9,2,2,43.9,2,95.3s41.9,93.3,93.3,93.3c51.5,0,93.3-41.9,93.3-93.3
		S146.8,2,95.3,2z"/>
</g>
<g>
	<g>
		<path class="st0" d="M94.3,134.8c-0.7,0-1.3,0.6-1.3,1.3v2.6c0,0.7,0.6,1.3,1.3,1.3s1.3-0.6,1.3-1.3v-2.6
			C95.6,135.4,95.1,134.8,94.3,134.8z"/>
	</g>
	<g>
		<path class="st0" d="M94.3,61.1c-23.2,0-42.1,18.9-42.1,42.1s18.9,42.1,42.1,42.1c23.2,0,42.1-18.9,42.1-42.1
			S117.5,61.1,94.3,61.1z M94.3,142.7c-21.7,0-39.4-17.7-39.4-39.4s17.7-39.4,39.4-39.4s39.4,17.7,39.4,39.4S116.1,142.7,94.3,142.7
			z"/>
	</g>
	<g>
		<path class="st0" d="M101.3,94.4l-15.8,15.8c-0.5,0.5-0.5,1.3,0,1.9c0.3,0.3,0.6,0.4,0.9,0.4s0.7-0.1,0.9-0.4l15.8-15.8
			c0.5-0.5,0.5-1.3,0-1.9C102.6,93.9,101.8,93.9,101.3,94.4z"/>
	</g>
	<g>
		<path class="st0" d="M89.1,101.9c2.2,0,3.9-1.8,3.9-3.9c0-2.2-1.8-3.9-3.9-3.9s-3.9,1.8-3.9,3.9C85.1,100.1,86.9,101.9,89.1,101.9
			z M89.1,96.6c0.7,0,1.3,0.6,1.3,1.3s-0.6,1.3-1.3,1.3s-1.3-0.6-1.3-1.3S88.3,96.6,89.1,96.6z"/>
	</g>
	<g>
		<path class="st0" d="M99.6,104.5c-2.2,0-3.9,1.8-3.9,3.9s1.8,3.9,3.9,3.9s3.9-1.8,3.9-3.9S101.8,104.5,99.6,104.5z M99.6,109.8
			c-0.7,0-1.3-0.6-1.3-1.3s0.6-1.3,1.3-1.3s1.3,0.6,1.3,1.3S100.3,109.8,99.6,109.8z"/>
	</g>
	<g>
		<path class="st0" d="M110.1,109.7c0-0.8,0.3-1.5,0.7-2.1l0.4-0.6c1.6-2.2,1.7-5.2,0-7.4l-0.5-0.6c-0.5-0.6-0.7-1.4-0.7-2.1v-0.6
			c0-2.8-1.9-5.3-4.7-6c-0.8-0.2-1.5-0.7-2-1.3l-0.1-0.2c-1.7-2.3-4.8-3.1-7.4-2l-0.1,0.1c-0.9,0.4-1.9,0.4-2.9,0
			c-2.7-1.2-5.7-0.3-7.4,2l-0.1,0.2c-0.5,0.7-1.2,1.1-2.1,1.3c-2.8,0.7-4.7,3.2-4.7,6v0.6c0,0.8-0.3,1.5-0.7,2.1l-0.4,0.6
			c-1.6,2.2-1.7,5.2,0,7.4l0.5,0.6c0.5,0.6,0.7,1.4,0.7,2.1v0.6c0,2.8,1.9,5.3,4.7,6c0.8,0.2,1.5,0.7,2,1.3l0.1,0.2
			c1.7,2.3,4.8,3.1,7.4,2l0.1-0.1c0.9-0.4,1.9-0.4,2.9,0c0.8,0.3,1.6,0.5,2.5,0.5c1.9,0,3.8-0.9,5-2.5c0,0,0,0,0,0l0.1-0.2
			c0.5-0.7,1.2-1.1,2.1-1.3c2.8-0.7,4.7-3.2,4.7-6V109.7z M109.2,105.4l-0.4,0.6c-0.8,1.1-1.2,2.4-1.2,3.7v0.6
			c0,1.6-1.1,3.1-2.8,3.5c-1.4,0.3-2.6,1.2-3.5,2.3l-0.1,0.2c-1,1.3-2.8,1.8-4.4,1.1c-1.6-0.7-3.3-0.7-4.9,0l-0.1,0.1
			c-1.5,0.6-3.3,0.2-4.3-1.2l-0.1-0.2c-0.9-1.2-2.1-2-3.5-2.3c-1.6-0.4-2.7-1.8-2.7-3.5v-0.6c0-1.3-0.4-2.6-1.2-3.7l-0.5-0.6
			c-0.9-1.3-0.9-3,0-4.3l0.4-0.6c0.8-1.1,1.2-2.4,1.2-3.7v-0.6c0-1.6,1.1-3.1,2.8-3.5c1.4-0.3,2.6-1.2,3.5-2.3l0.1-0.2
			c0.7-0.9,1.7-1.4,2.8-1.4c0.5,0,1,0.1,1.5,0.3c1.5,0.7,3.3,0.7,4.9,0l0.1-0.1c1.5-0.7,3.3-0.2,4.3,1.2l0.1,0.2
			c0.9,1.2,2.1,2,3.5,2.3c1.6,0.4,2.7,1.8,2.7,3.5v0.6c0,1.3,0.4,2.6,1.2,3.7l0.5,0.6C110.1,102.4,110.1,104.1,109.2,105.4z"/>
	</g>
	<g>
		<path class="st0" d="M94.3,71.7c0.7,0,1.3-0.6,1.3-1.3v-2.6c0-0.7-0.6-1.3-1.3-1.3S93,67,93,67.7v2.6C93,71.1,93.6,71.7,94.3,71.7
			z"/>
	</g>
	<g>
		<path class="st0" d="M76.8,75.4c0.4,0.6,1.2,0.8,1.8,0.5c0.6-0.4,0.8-1.2,0.5-1.8l-1.3-2.3c-0.4-0.6-1.2-0.8-1.8-0.5
			c-0.6,0.4-0.8,1.2-0.5,1.8L76.8,75.4z"/>
	</g>
	<g>
		<path class="st0" d="M66.5,85.6l-2.3-1.3c-0.6-0.4-1.4-0.1-1.8,0.5c-0.4,0.6-0.1,1.4,0.5,1.8l2.3,1.3c0.6,0.4,1.4,0.2,1.8-0.5
			C67.4,86.8,67.1,86,66.5,85.6z"/>
	</g>
	<g>
		<path class="st0" d="M62.8,103.2c0-0.7-0.6-1.3-1.3-1.3h-2.6c-0.7,0-1.3,0.6-1.3,1.3c0,0.7,0.6,1.3,1.3,1.3h2.6
			C62.2,104.5,62.8,103.9,62.8,103.2z"/>
	</g>
	<g>
		<path class="st0" d="M65.2,118.5l-2.3,1.3c-0.6,0.4-0.8,1.2-0.5,1.8c0.4,0.6,1.2,0.8,1.8,0.5l2.3-1.3c0.6-0.4,0.8-1.2,0.5-1.8
			C66.6,118.4,65.8,118.1,65.2,118.5z"/>
	</g>
	<g>
		<path class="st0" d="M78.5,130.5c-0.6-0.4-1.4-0.1-1.8,0.5l-1.3,2.3c-0.4,0.6-0.1,1.4,0.5,1.8c0.6,0.4,1.4,0.2,1.8-0.5l1.3-2.3
			C79.4,131.7,79.2,130.9,78.5,130.5z"/>
	</g>
	<g>
		<path class="st0" d="M111.9,131c-0.4-0.6-1.2-0.8-1.8-0.5c-0.6,0.4-0.8,1.2-0.5,1.8l1.3,2.3c0.4,0.6,1.2,0.8,1.8,0.5
			c0.6-0.4,0.8-1.2,0.5-1.8L111.9,131z"/>
	</g>
	<g>
		<path class="st0" d="M125.7,119.8l-2.3-1.3c-0.6-0.4-1.4-0.1-1.8,0.5s-0.1,1.4,0.5,1.8l2.3,1.3c0.6,0.4,1.4,0.2,1.8-0.5
			C126.6,121,126.4,120.2,125.7,119.8z"/>
	</g>
	<g>
		<path class="st0" d="M125.9,103.2c0,0.7,0.6,1.3,1.3,1.3h2.6c0.7,0,1.3-0.6,1.3-1.3c0-0.7-0.6-1.3-1.3-1.3h-2.6
			C126.5,101.9,125.9,102.5,125.9,103.2z"/>
	</g>
	<g>
		<path class="st0" d="M121.7,87.4c0.4,0.6,1.2,0.8,1.8,0.5l2.3-1.3c0.6-0.4,0.8-1.2,0.5-1.8c-0.4-0.6-1.2-0.8-1.8-0.5l-2.3,1.3
			C121.5,86,121.3,86.8,121.7,87.4z"/>
	</g>
	<g>
		<path class="st0" d="M112.7,71.3c-0.6-0.4-1.4-0.1-1.8,0.5l-1.3,2.3c-0.4,0.6-0.1,1.4,0.5,1.8c0.6,0.4,1.4,0.2,1.8-0.5l1.3-2.3
			C113.6,72.5,113.4,71.7,112.7,71.3z"/>
	</g>
	<g>
		<path class="st0" d="M138,72.5c0.5,0.5,1.3,0.5,1.9,0l5.6-5.6c0.5-0.5,0.5-1.3,0-1.9l-13-13c-0.5-0.5-1.4-0.5-1.9,0l-5.6,5.6
			c-0.5,0.5-0.5,1.3,0,1.9l2.8,2.8l-3.9,3.9c-6.8-5.5-15.1-9.1-24.3-10.1v-5.6h3.9c0.7,0,1.3-0.6,1.3-1.3v-7.9
			c0-0.7-0.6-1.3-1.3-1.3H85.1c-0.7,0-1.3,0.6-1.3,1.3v7.9c0,0.7,0.6,1.3,1.3,1.3h3.9v5.6c-9.1,1-17.5,4.6-24.3,10.1l-3.9-3.9
			l2.8-2.8c0.5-0.5,0.5-1.3,0-1.9l-5.6-5.6c-0.5-0.5-1.3-0.5-1.9,0l-13,13c-0.5,0.5-0.5,1.3,0,1.9l5.6,5.6c0.3,0.3,0.6,0.4,0.9,0.4
			c0.3,0,0.7-0.1,0.9-0.4l2.8-2.8l3.9,3.9C50.9,81.8,47,92.1,47,103.2c0,26.1,21.2,47.3,47.3,47.3s47.3-21.2,47.3-47.3
			c0-11.2-3.9-21.4-10.4-29.5l3.9-3.9L138,72.5z M131.5,54.9L142.7,66l-3.7,3.7l-11.2-11.2L131.5,54.9z M86.4,42.7h15.8V48
			c-7.6,0-8.2,0-15.8,0V42.7z M91.7,56v-5.3H97V56c0,0-0.1,0-0.1,0c-0.8,0-1.7-0.1-2.5-0.1S92.6,55.9,91.7,56
			C91.8,56,91.7,56,91.7,56z M49.7,69.7L46,66l11.2-11.2l3.7,3.7C60.3,59.1,50.2,69.2,49.7,69.7z M59,64.2l3.8,3.8
			c-1.3,1.1-2.6,2.4-3.7,3.7l-3.8-3.8L59,64.2z M94.3,147.9c-24.6,0-44.7-20.1-44.7-44.7c0-24.7,20.1-44.7,44.7-44.7
			c24.6,0,44.7,20,44.7,44.7C139,127.9,119,147.9,94.3,147.9z M133.4,67.9l-3.8,3.8c-1.1-1.2-2.4-2.5-3.7-3.7l3.8-3.8L133.4,67.9z"
			/>
	</g>
</g>
</svg>
