<?xml version="1.0" encoding="utf-8"?>
<!-- Generator: Adobe Illustrator 25.0.0, SVG Export Plug-In . SVG Version: 6.00 Build 0)  -->
<svg version="1.1" id="Layer_1" xmlns="http://www.w3.org/2000/svg" xmlns:xlink="http://www.w3.org/1999/xlink" x="0px" y="0px"
	 viewBox="0 0 190.7 190.7" style="enable-background:new 0 0 190.7 190.7;" xml:space="preserve">
<style type="text/css">
	.st0{fill:rgb(214, 214, 214);}
</style>
<g>
	<path class="st0" d="M95.3,190.7C42.8,190.7,0,147.9,0,95.3C0,42.8,42.8,0,95.3,0s95.3,42.8,95.3,95.3
		C190.7,147.9,147.9,190.7,95.3,190.7z M95.3,2C43.9,2,2,43.9,2,95.3s41.9,93.3,93.3,93.3c51.5,0,93.3-41.9,93.3-93.3
		S146.8,2,95.3,2z"/>
</g>
<g>
	<g>
		<path class="st0" d="M97.9,122.2h2.6c0.7,0,1.3-0.6,1.3-1.3s-0.6-1.3-1.3-1.3h-2.6c-0.7,0-1.3,0.6-1.3,1.3S97.2,122.2,97.9,122.2z
			"/>
	</g>
	<g>
		<path class="st0" d="M150.3,50.5h-26.9c-0.7,0-1.3,0.6-1.3,1.3s0.6,1.3,1.3,1.3h25.6v61.4H49.3V53.1h25.6c0.7,0,1.3-0.6,1.3-1.3
			s-0.6-1.3-1.3-1.3H48c-0.7,0-1.3,0.6-1.3,1.3c0,9.2,0,66.8,0,74.2c0,0.7,0.6,1.3,1.3,1.3h40.9v6.4c0,3.5-2.9,6.4-6.4,6.4
			c-4.2,0-7.7,3.4-7.7,7.7v1.3c0,0.7,0.6,1.3,1.3,1.3h46.1c0.7,0,1.3-0.6,1.3-1.3v-1.3c0-4.2-3.4-7.7-7.7-7.7
			c-3.5,0-6.4-2.9-6.4-6.4v-6.4h40.9c0.7,0,1.3-0.6,1.3-1.3c0-7.4,0-65.1,0-74.2C151.6,51.1,151.1,50.5,150.3,50.5z M120.9,147.8
			H77.4c0-2.8,2.3-5.1,5.1-5.1h33.3C118.6,142.7,120.9,145,120.9,147.8z M109.5,140.1H88.8c1.7-1.6,2.7-3.9,2.7-6.4v-6.4h15.4v6.4
			C106.8,136.2,107.9,138.5,109.5,140.1z M149.1,124.8c-9,0-90.8,0-99.8,0v-7.7h99.8V124.8z"/>
	</g>
	<g>
		<path class="st0" d="M74.9,73.6h-1.3c-4.9,0-9,4-9,9v5.1c0,4.9,4,9,9,9h10.2c0.7,0,1.3-0.6,1.3-1.3V74.9c0-0.7-0.6-1.3-1.3-1.3
			h-1.3v-9C82.5,55.5,90,48,99.2,48s16.6,7.5,16.6,16.6v9h-1.3c-0.7,0-1.3,0.6-1.3,1.3v20.5c0,0.7,0.6,1.3,1.3,1.3h3.8v2.6
			c0,0.7-0.6,1.3-1.3,1.3h-11.8c-0.5-1.5-1.9-2.6-3.6-2.6h-5.1c-2.1,0-3.8,1.7-3.8,3.8c0,2.1,1.7,3.8,3.8,3.8h5.1
			c1.7,0,3.1-1.1,3.6-2.6h11.8c2.1,0,3.8-1.7,3.8-3.8v-2.6h3.8c4.9,0,9-4,9-9v-5.1c0-4.9-4-9-9-9h-1.3v-9
			c0-13.4-10.9-24.3-24.3-24.3S74.9,51.2,74.9,64.6V73.6z M101.7,103h-5.1c-0.7,0-1.3-0.6-1.3-1.3c0-0.7,0.6-1.3,1.3-1.3h5.1
			c0.7,0,1.3,0.6,1.3,1.3C103,102.4,102.4,103,101.7,103z M82.5,94h-9c-3.5,0-6.4-2.9-6.4-6.4v-5.1c0-3.5,2.9-6.4,6.4-6.4
			c3,0,2.2,0,9,0V94z M131.2,82.5v5.1c0,3.5-2.9,6.4-6.4,6.4h-9V76.1c1.8,0,6.9,0,9,0C128.3,76.1,131.2,79,131.2,82.5z M77.4,64.6
			c0-12,9.8-21.8,21.8-21.8s21.8,9.8,21.8,21.8v9h-2.6v-9c0-10.6-8.6-19.2-19.2-19.2S80,54,80,64.6v9h-2.6V64.6z"/>
	</g>
</g>
</svg>
