<svg id="Layer_1" enable-background="new 0 0 512 512" height="512" viewBox="0 0 512 512" width="512" xmlns="http://www.w3.org/2000/svg"><g><path d="m80 250v-130c0-55.229 44.771-100 100-100h-60c-55.229 0-100 44.771-100 100v130c0 55.229 44.771 100 100 100h60c-55.229 0-100-44.771-100-100z" fill="#cee1f2"/><path d="m193 370h-73c-66.168 0-120-53.832-120-120v-130c0-66.168 53.832-120 120-120h130c66.168 0 120 53.832 120 120v73c-1.056 26.536-38.953 26.516-40 0v-73c0-44.112-35.888-80-80-80h-130c-44.112 0-80 35.888-80 80v130c0 44.112 35.888 80 80 80h73c26.536 1.056 26.516 38.953 0 40z" fill="#0023c4"/><path d="m422 512h-78.92c-49.67 0-90.08-40.41-90.08-90.08v-78.92c0-49.626 40.374-90 90-90h79c49.626 0 90 40.374 90 90v79c0 49.626-40.374 90-90 90zm-79-219c-27.57 0-50 22.43-50 50v78.92c0 27.614 22.466 50.08 50.08 50.08h78.92c27.57 0 50-22.43 50-50v-79c0-27.57-22.43-50-50-50z" fill="#ff5cf3"/></g></svg>