<svg id="Layer_1" enable-background="new 0 0 512 512" height="512" viewBox="0 0 512 512" width="512" xmlns="http://www.w3.org/2000/svg"><g><path d="m80 250v-130c0-55.229 44.771-100 100-100h-60c-55.229 0-100 44.771-100 100v130c0 55.229 44.771 100 100 100h60c-55.229 0-100-44.771-100-100z" fill="#cee1f2"/><path d="m250 370h-130c-66.168 0-120-53.832-120-120v-130c0-66.168 53.832-120 120-120h130c66.168 0 120 53.832 120 120v130c0 66.168-53.832 120-120 120zm-130-330c-44.112 0-80 35.888-80 80v130c0 44.112 35.888 80 80 80h130c44.112 0 80-35.888 80-80v-130c0-44.112-35.888-80-80-80z" fill="#0023c4"/><path d="m421.92 512h-78.84c-48.375 0-87.906-37.835-89.995-86.136-.478-11.035 8.082-20.368 19.117-20.846 11.036-.484 20.368 8.081 20.846 19.117 1.161 26.841 23.138 47.865 50.032 47.865h78.84c27.614 0 50.08-22.466 50.08-50.08v-78.84c0-26.145-20.394-48.085-46.429-49.949-11.018-.789-19.31-10.36-18.521-21.378.79-11.019 10.38-19.314 21.378-18.52 22.678 1.624 43.739 11.69 59.307 28.342 15.648 16.738 24.265 38.581 24.265 61.505v78.84c0 49.67-40.41 90.08-90.08 90.08z" fill="#ff5cf3"/></g></svg>