<?xml version="1.0" encoding="utf-8"?>
<!-- Generator: Adobe Illustrator 25.1.0, SVG Export Plug-In . SVG Version: 6.00 Build 0)  -->
<svg version="1.1" id="Layer_1" xmlns="http://www.w3.org/2000/svg" xmlns:xlink="http://www.w3.org/1999/xlink" x="0px" y="0px"
	 viewBox="0 0 662.5 573.8" style="enable-background:new 0 0 662.5 573.8;" xml:space="preserve">
<g id="fIRUOk_1_">
	<g>
		<g>
			<path d="M221.7,343.6c-58.3,0-116.7,0-175,0.1c-3.9,0-5.2-1.1-5.6-5c-6.2-54.8-12.6-109.5-19-164.3c-2.7-23.1-5.3-46.2-8-69.3
				c-0.4-3.2,0.5-4.1,3.7-4.1c13.2,0.2,26.3,0.2,39.5,0c3,0,4.1,0.9,4.5,3.9c4,35.2,8.1,70.5,12.2,105.7c3.2,27.4,6.4,54.9,9.5,82.3
				c0.4,3.4,2.3,3.2,4.6,3.2c32.8,0,65.6,0,98.5,0c73.2,0,146.4,0,219.6,0c1.9,0,3.7,0,5.6,0c8.8-0.1,8.8-0.1,11.9-8.2
				c30.8-79.7,61.5-159.3,92.3-239c4.1-10.7,8.3-21.3,12.2-32c0.9-2.3,1.9-3.3,4.5-3.3c38.3,0.1,76.5,0,114.8-0.1
				c2.7,0,3.7,0.7,3.7,3.5c-0.1,17.1-0.2,34.3,0,51.4c0,3.2-1.2,3.7-3.9,3.7c-25.1-0.1-50.2,0.1-75.3,0c-2.9,0-4.2,0.9-5.2,3.6
				c-20,52.6-40.2,105.2-60.3,157.8c-22.2,58.2-44.5,116.3-66.6,174.6c-5.1,13.4-9.6,27-14,40.6c-0.9,2.7-2.4,2.6-4.4,2.7
				c-38.9,0.7-77.8,1.4-116.8,2.1c-85,1.5-170,3-255.1,4.5c-4.8,0.1-4.8,0.1-3.6-4.4c2.4-8.8,4.9-17.7,7.2-26.5
				c0.7-2.8,2-3.8,4.9-3.9c36.9-2.2,73.7-4.6,110.6-6.9c36.1-2.3,72.1-4.5,108.2-6.8c32.8-2,65.5-4.1,98.3-6c3.1-0.2,4.7-1,5.8-4
				c6.5-17.3,13.1-34.5,19.9-51.7c1.2-3.1,1.2-4.3-2.7-4.3c-48.2,0.1-96.5,0-144.7,0C242.7,343.5,232.2,343.6,221.7,343.6
				C221.7,343.6,221.7,343.6,221.7,343.6z"/>
			<path d="M383.1,512.5c0.1-26.7,21.8-48.3,48.6-48.3c26.6,0,48.5,21.9,48.5,48.5c0,26.6-22,48.6-48.5,48.6
				C404.9,561.2,383,539.3,383.1,512.5z"/>
			<path d="M124.1,518.5c-0.2,23.7-19.9,43-43.5,42.7c-23.9-0.3-43.1-20-42.8-43.9c0.3-23.6,20.1-42.8,43.8-42.4
				C105.5,475.3,124.3,494.6,124.1,518.5z"/>
		</g>
	</g>
</g>
</svg>
