<svg id="Layer_1" enable-background="new 0 0 256 256" height="512" viewBox="0 0 256 256" width="512" xmlns="http://www.w3.org/2000/svg"><path d="m188.098 248.578h-120.196c-5.334 0-9.659-4.324-9.659-9.659v-112.682c0-5.334 4.324-9.659 9.659-9.659h120.195c5.334 0 9.659 4.324 9.659 9.659v112.683c0 5.334-4.324 9.658-9.658 9.658z" fill="#f9a7a7"/><path d="m104.85 116.578v42.928c5.789 0 5.789-4.829 11.578-4.829s5.789 4.829 11.578 4.829c5.785 0 5.785-4.829 11.57-4.829 5.787 0 5.787 4.829 11.574 4.829v-42.928z" fill="#f9cfcf"/><path d="m188.098 250.578h-120.196c-6.428 0-11.658-5.229-11.658-11.658v-112.683c0-6.429 5.23-11.659 11.658-11.659h120.195c6.428 0 11.658 5.23 11.658 11.659v112.683c.001 6.429-5.229 11.658-11.657 11.658zm-120.196-132c-4.223 0-7.658 3.436-7.658 7.659v112.683c0 4.223 3.436 7.658 7.658 7.658h120.195c4.223 0 7.658-3.436 7.658-7.658v-112.683c0-4.224-3.436-7.659-7.658-7.659z" fill="#3762cc"/><path d="m183.441 226.712h-17.095c-1.78 0-3.224-1.443-3.224-3.224 0-1.78 1.443-3.224 3.224-3.224h17.095c1.78 0 3.224 1.443 3.224 3.224 0 1.781-1.443 3.224-3.224 3.224z" fill="#e0ebfc"/><path d="m183.441 235.273h-17.095c-1.78 0-3.224-1.443-3.224-3.224 0-1.78 1.443-3.224 3.224-3.224h17.095c1.78 0 3.224 1.443 3.224 3.224 0 1.781-1.443 3.224-3.224 3.224z" fill="#e0ebfc"/><path d="m102.871 236.122h-29.512c-2.223 0-4.024-1.802-4.024-4.024v-12.341c0-2.223 1.802-4.024 4.024-4.024h29.512c2.223 0 4.024 1.802 4.024 4.024v12.341c.001 2.222-1.801 4.024-4.024 4.024z" fill="#e0ebfc"/><path d="m32.323 234.794h-22.698c-.898 0-1.625-.728-1.625-1.625v-70.112c0-.898.728-1.625 1.625-1.625h22.698c3.332 0 6.034 2.701 6.034 6.034v61.295c0 3.331-2.702 6.033-6.034 6.033z" fill="#4671c6"/><path d="m43.915 167.441h-5.559c0 .008.001.016.001.024v60.082h5.558c1.774 0 3.213-1.438 3.213-3.213v-53.681c0-1.774-1.439-3.212-3.213-3.212z" fill="#e0ebfc"/><path d="m161.875 190.304c0-4.282-3.471-7.754-7.754-7.754h-9.438c4.019-.289 7.192-3.633 7.192-7.725 0-4.282-3.471-7.754-7.754-7.754h-7.455-33.816-7.309l5.014-4.131c3.554-2.928 4.448-8.167 1.755-11.903-2.951-4.094-8.69-4.789-12.523-1.631l-23.117 19.048.022.026c-1.47 1.011-2.587 2.499-3.125 4.241-.254.822-1.056 1.351-1.916 1.351h-14.523v48h14.557c.855 0 1.637.536 1.889 1.353 1.01 3.27 4.051 5.647 7.653 5.647h27.623 36.896.92v-.06c3.848-.456 6.833-3.724 6.833-7.694s-2.986-7.238-6.833-7.694v-.06h11.455c4.282 0 7.754-3.471 7.754-7.753 0-4.282-3.471-7.753-7.754-7.753h6c4.283-.001 7.754-3.472 7.754-7.754z" fill="#f9cfcf"/><path d="m32.323 236.794h-22.698c-1.999 0-3.625-1.626-3.625-3.625v-70.112c0-1.999 1.626-3.625 3.625-3.625h22.698c4.43 0 8.034 3.604 8.034 8.033v61.295c0 4.429-3.604 8.034-8.034 8.034zm-22.323-4h22.323c2.224 0 4.034-1.81 4.034-4.034v-61.295c0-2.224-1.81-4.033-4.034-4.033h-22.323z" fill="#3762cc"/><path d="m43.915 229.547h-5.558c-1.104 0-2-.896-2-2v-60.042c-.014-.521.175-1.032.53-1.417.378-.409.911-.647 1.468-.647h5.56c2.875 0 5.213 2.339 5.213 5.213v53.682c0 2.873-2.338 5.211-5.213 5.211zm-3.558-4h3.558c.669 0 1.213-.544 1.213-1.212v-53.682c0-.669-.544-1.213-1.213-1.213h-3.558z" fill="#3762cc"/><path d="m200.24 31.133-22.823-19.26c-4.13-3.485-9.556-5.034-14.903-4.254l-45.247 6.598c-3.885.567-6.767 3.898-6.767 7.825v52.044l48.512 15.454 41.228-4.919h15.783v-53.488z" fill="#f9cfcf"/><path d="m159.012 91.54c-.206 0-.41-.031-.607-.095l-48.511-15.454c-.83-.264-1.393-1.034-1.393-1.905v-52.044c0-4.884 3.645-9.099 8.478-9.805l45.247-6.598c5.911-.857 11.917.854 16.481 4.705l22.265 18.789h15.052c1.104 0 2 .896 2 2v53.487c0 1.104-.896 2-2 2h-15.664l-41.111 4.905c-.079.01-.158.015-.237.015zm-46.512-18.916 46.705 14.879 40.798-4.868c.079-.009.158-.014.237-.014h13.783v-49.487h-13.783c-.472 0-.929-.167-1.29-.472l-22.823-19.261c-3.69-3.113-8.547-4.499-13.325-3.803l-45.247 6.598c-2.882.42-5.055 2.934-5.055 5.846z" fill="#3762cc"/><path d="m169.328 92.432h-104.797c-3.473 0-6.288-2.815-6.288-6.288v-52.398c0-3.473 2.815-6.288 6.288-6.288h104.797c3.473 0 6.288 2.815 6.288 6.288v52.398c0 3.472-2.815 6.288-6.288 6.288z" fill="#6bdddd"/><circle cx="116.93" cy="59.945" fill="#e0ebfc" r="23.422"/><path d="m115.265 73.461c-3.666-.553-6.322-2.824-6.623-6.534-.031-.386.282-.716.67-.716h2.901c.331 0 .606.244.661.571.22 1.291.865 2.3 1.989 2.833.448.213.968-.107.968-.603v-7.007c0-.3-.2-.563-.489-.645-3.296-.932-6.728-2.15-6.728-7.298 0-4.102 2.699-6.979 6.657-7.594.323-.05.56-.332.56-.659v-1.885c0-.37.3-.67.67-.67h.894c.37 0 .67.3.67.67v1.844c0 .327.236.611.56.659 3.414.515 5.774 2.642 6.301 6.298.058.402-.26.762-.666.762h-2.873c-.321 0-.587-.23-.657-.543-.215-.964-.766-1.837-1.616-2.395-.45-.295-1.049.016-1.049.555v6.738c0 .303.203.567.496.647 3.292.896 6.688 2.08 6.688 7.225 0 3.565-2.339 7.025-6.623 7.708-.323.052-.56.332-.56.659v1.886c0 .37-.3.67-.67.67h-.896c-.37 0-.67-.3-.67-.67v-1.845c0-.33-.24-.612-.565-.661zm.565-16.76v-5.892c0-.453-.446-.789-.873-.639-1.416.497-2.357 1.703-2.357 3.661 0 1.813.915 2.81 2.259 3.47.447.22.971-.101.971-.6zm2.234 6.445v5.884c0 .487.501.806.947.612 1.469-.639 2.284-2.036 2.284-3.7 0-1.784-.917-2.75-2.263-3.399-.448-.215-.968.106-.968.603z" fill="#4671c6"/><path d="m169.329 94.432h-104.797c-4.57 0-8.288-3.718-8.288-8.288v-52.399c0-4.569 3.718-8.287 8.288-8.287h104.796c4.57 0 8.288 3.718 8.288 8.287v52.398c0 4.571-3.718 8.289-8.287 8.289zm-104.797-64.974c-2.364 0-4.288 1.923-4.288 4.287v52.398c0 2.364 1.923 4.288 4.288 4.288h104.797c2.364 0 4.288-1.924 4.288-4.288v-52.398c0-2.364-1.924-4.287-4.288-4.287z" fill="#3762cc"/><path d="m116.93 85.367c-14.018 0-25.422-11.404-25.422-25.423 0-14.018 11.404-25.422 25.422-25.422s25.422 11.404 25.422 25.422c0 14.019-11.404 25.423-25.422 25.423zm0-46.845c-11.813 0-21.422 9.609-21.422 21.422s9.61 21.423 21.422 21.423 21.422-9.61 21.422-21.423-9.61-21.422-21.422-21.422z" fill="#3762cc"/><path d="m224.026 94.072h22.372c.885 0 1.602-.717 1.602-1.602v-69.104c0-.885-.717-1.602-1.602-1.602h-22.372c-3.285 0-5.947 2.663-5.947 5.947v60.414c0 3.285 2.663 5.947 5.947 5.947z" fill="#4671c6"/><path d="m175.598 58.9-44.122 2.03c-1.031-.103-2.042-.051-3.009.139h-.006l.001.001c-4.308.848-7.75 4.416-8.233 9.011-.594 5.646 3.502 10.704 9.148 11.298l38.743 4.952c4.968.635 9.993.692 14.975.17l11.377-1.192 2.735-26.409z" fill="#f9cfcf"/><path d="m176.343 88.854c-2.834 0-5.667-.181-8.476-.54l-38.743-4.951c-3.217-.338-6.15-1.931-8.214-4.479s-3.012-5.749-2.669-9.011c.567-5.392 4.52-9.718 9.835-10.765.022-.005.044-.009.066-.012 1.108-.213 2.245-.27 3.383-.169l43.982-2.024c1.103-.041 2.039.803 2.09 1.906s-.803 2.039-1.906 2.09l-44.122 2.03c-.095.003-.195.002-.292-.008-.818-.083-1.632-.044-2.423.11-.02.004-.04.008-.06.012-3.556.725-6.195 3.63-6.575 7.247-.231 2.199.408 4.357 1.799 6.076s3.369 2.792 5.568 3.023l38.788 4.957c4.806.613 9.688.669 14.513.165l11.377-1.192c1.093-.109 2.083.682 2.198 1.781.115 1.098-.682 2.082-1.781 2.197l-11.377 1.192c-2.312.243-4.637.365-6.961.365z" fill="#3762cc"/><path d="m218.079 27.711c0-.008.001-.016.001-.024h-5.479c-1.749 0-3.167 1.418-3.167 3.167v52.91c0 1.749 1.418 3.167 3.167 3.167h5.478z" fill="#e0ebfc"/><g fill="#3762cc"><path d="m246.398 96.072h-22.372c-4.382 0-7.947-3.565-7.947-7.947v-60.414c0-4.382 3.565-7.947 7.947-7.947h22.372c1.986 0 3.602 1.615 3.602 3.602v69.104c0 1.986-1.616 3.602-3.602 3.602zm-22.372-72.308c-2.177 0-3.947 1.771-3.947 3.947v60.414c0 2.177 1.771 3.947 3.947 3.947h21.974v-68.308z"/><path d="m218.079 88.93h-5.478c-2.849 0-5.167-2.318-5.167-5.167v-52.909c0-2.849 2.318-5.167 5.167-5.167h5.479c1.104 0 2 .896 2 2 0 .023 0 .048-.001.074v59.169c0 1.104-.895 2-2 2zm-5.478-59.243c-.643 0-1.167.523-1.167 1.167v52.909c0 .644.523 1.167 1.167 1.167h3.478v-55.243z"/><path d="m136.667 231.071h-65.44c-4.417 0-8.261-2.836-9.563-7.058l-14.535.058c-1.104 0-2-.896-2-2v-48c0-1.104.896-2 2-2h14.523c.626-1.955 1.886-3.733 3.574-4.999.054-.057.112-.11.173-.162l23.117-19.048c2.262-1.864 5.227-2.712 8.136-2.342 2.95.382 5.536 1.925 7.281 4.348 3.266 4.531 2.341 10.952-2.105 14.616l-.713.587h43.007c5.378 0 9.753 4.376 9.753 9.754 0 2.126-.695 4.109-1.874 5.725h2.121c5.378 0 9.753 4.376 9.753 9.754 0 4.779-3.456 8.767-8 9.595 1.255 1.642 2 3.691 2 5.912 0 5.378-4.375 9.754-9.753 9.754h-4.501c1.186 1.62 1.88 3.614 1.88 5.754 0 4.772-3.451 8.818-8.107 9.608-.226.093-.471.144-.727.144zm-87.539-11h12.557c1.762 0 3.29 1.109 3.8 2.762.783 2.535 3.09 4.238 5.742 4.238h64.959c.08-.021.162-.036.246-.046 2.89-.342 5.068-2.795 5.068-5.707s-2.179-5.366-5.069-5.708c-1.006-.119-1.765-.973-1.765-1.986 0-1.104.896-2.06 2-2.06h11.455c3.172 0 5.753-2.581 5.753-5.754s-2.581-5.754-5.753-5.754c-1.104 0-2-.896-2-2s.896-2 2-2h6c3.172 0 5.753-2.581 5.753-5.753 0-3.173-2.581-5.754-5.753-5.754h-9.438c-1.077 0-1.96-.853-1.999-1.928-.039-1.076.781-1.99 1.855-2.067 2.992-.215 5.335-2.731 5.335-5.729 0-3.173-2.581-5.754-5.753-5.754h-48.58c-.844 0-1.597-.53-1.882-1.324-.285-.795-.041-1.683.61-2.22l5.014-4.131c2.824-2.327 3.441-6.363 1.404-9.19-1.092-1.515-2.708-2.48-4.549-2.719-1.844-.235-3.646.281-5.08 1.463l-22.851 18.828c-.11.133-.239.251-.383.35-1.117.769-1.95 1.898-2.348 3.184-.502 1.625-2.076 2.76-3.826 2.76h-12.522z"/><path d="m135.747 231.071h-36.896c-1.104 0-2-.896-2-2s.896-2 2-2h36.896c3.172 0 5.753-2.581 5.753-5.753 0-3.173-2.581-5.754-5.753-5.754h-28.851c-1.104 0-2-.896-2-2s.896-2 2-2h28.851c5.378 0 9.753 4.376 9.753 9.754s-4.375 9.753-9.753 9.753z"/><path d="m148.122 215.564h-41.226c-1.104 0-2-.896-2-2s.896-2 2-2h41.226c3.172 0 5.753-2.581 5.753-5.754s-2.581-5.754-5.753-5.754h-41.226c-1.104 0-2-.896-2-2s.896-2 2-2h41.226c5.378 0 9.753 4.376 9.753 9.754s-4.375 9.754-9.753 9.754z"/><path d="m154.122 200.057h-47.226c-1.104 0-2-.896-2-2s.896-2 2-2h47.226c3.172 0 5.753-2.581 5.753-5.753 0-3.173-2.581-5.754-5.753-5.754l-47.225.028s0 0-.001 0c-1.104 0-2-.895-2-1.999s.894-2 1.999-2.001l47.226-.028c5.379 0 9.754 4.376 9.754 9.754s-4.375 9.753-9.753 9.753z"/></g></svg>