<svg xmlns="http://www.w3.org/2000/svg" viewBox="0 0 25 25"><defs><style>.cls-1{fill:#2b4294;fill-rule:evenodd;}</style></defs><g id="Layer_2" data-name="Layer 2"><g id="Layer_1-2" data-name="Layer 1"><path class="cls-1" d="M25,12.2v-3a9.1,9.1,0,0,0-.1-1.7,7.9,7.9,0,0,0-.2-1.7,5.7,5.7,0,0,0-.4-1.4,3.4,3.4,0,0,0-.6-1.2l-.8-1.1-1.1-.8L20.6.7,19.2.3,17.5.1H7.5L5.8.3,4.4.7a3.4,3.4,0,0,0-1.2.6l-1.1.8L1.3,3.2A3.4,3.4,0,0,0,.7,4.4,5.7,5.7,0,0,0,.3,5.8,7.9,7.9,0,0,0,.1,7.5,9.7,9.7,0,0,0,0,9.2v6.6a9.1,9.1,0,0,0,.1,1.7,7.9,7.9,0,0,0,.2,1.7,5.7,5.7,0,0,0,.4,1.4,3.4,3.4,0,0,0,.6,1.2l.8,1.1h0l1.1.8a3.4,3.4,0,0,0,1.2.6l1.4.4,1.7.2h10l1.7-.2,1.4-.4,1.2-.6,1.1-.8.8-1.1a3.4,3.4,0,0,0,.6-1.2,5.7,5.7,0,0,0,.4-1.4,7.9,7.9,0,0,0,.2-1.7,9.1,9.1,0,0,0,.1-1.7V12.2Zm-2.2,3.5a9.1,9.1,0,0,1-.1,1.7,6.6,6.6,0,0,1-.1,1.5l-.3.9a2,2,0,0,1-.4.8l-.6.7-.7.6a2,2,0,0,1-.8.4l-.9.3H13.4V14.6a.3.3,0,0,1,.3-.3h2.8l.3-2.9h-3a.3.3,0,0,1-.3-.3V9.2h0c.2-1.7,2.4-1.8,3.3-1.8V4.7c-1.1-.2-5.7-.8-6.7,2.9h0a7.5,7.5,0,0,0-.2,1.1v2.3a.3.3,0,0,1-.3.3H7.3v2.9H9.7a.4.4,0,0,1,.4.3v8.2h-4l-.9-.3a2,2,0,0,1-.8-.4l-.7-.6-.6-.7a5.9,5.9,0,0,1-.4-.8,4.6,4.6,0,0,1-.3-.9c0-.4-.1-.9-.1-1.5a9.1,9.1,0,0,1-.1-1.7V9.3a9.1,9.1,0,0,1,.1-1.7c0-.6.1-1.1.1-1.5l.3-.9a5.9,5.9,0,0,1,.4-.8l.6-.7.7-.6.8-.4.9-.3H18.9l.9.3.8.4.7.6h0l.6.7a2,2,0,0,1,.4.8l.3.9a6.6,6.6,0,0,1,.1,1.5,9.1,9.1,0,0,1,.1,1.7v6.4Z"/></g></g></svg>