<svg xmlns="http://www.w3.org/2000/svg" viewBox="0 0 24.7 24.7"><defs><style>.cls-1{fill:#2b4294;fill-rule:evenodd;}</style></defs><g id="Layer_2" data-name="Layer 2"><g id="Layer_1-2" data-name="Layer 1"><path class="cls-1" d="M9.1,0h8.2L19,.3l1.3.4a4.3,4.3,0,0,1,1.2.5l1.1.9.9,1.1A4.3,4.3,0,0,1,24,4.4a5,5,0,0,1,.4,1.3,7.9,7.9,0,0,1,.2,1.7,9.1,9.1,0,0,1,.1,1.7v6.5a9.1,9.1,0,0,1-.1,1.7,7.9,7.9,0,0,1-.2,1.7,5,5,0,0,1-.4,1.3,4.3,4.3,0,0,1-.5,1.2l-.9,1.1-1.1.9a4.3,4.3,0,0,1-1.2.5l-1.3.4-1.7.2H7.4l-1.7-.2L4.4,24a4.3,4.3,0,0,1-1.2-.5l-1.1-.9h0l-.9-1.1a4.3,4.3,0,0,1-.5-1.2A5,5,0,0,1,.3,19a7.9,7.9,0,0,1-.2-1.7A9.1,9.1,0,0,1,0,15.6V9.1A9.1,9.1,0,0,1,.1,7.4,7.9,7.9,0,0,1,.3,5.7,5,5,0,0,1,.7,4.4a4.3,4.3,0,0,1,.5-1.2l.9-1.1,1.1-.9A4.3,4.3,0,0,1,4.4.7L5.7.3,7.4.1ZM19.5,6.7a.9.9,0,0,1-.7.3,1.1,1.1,0,0,1-.8-.3,1.1,1.1,0,0,1-.3-.7,1.1,1.1,0,0,1,.3-.8,1.1,1.1,0,0,1,.8-.3.9.9,0,0,1,.7.3,1.1,1.1,0,0,1,.3.8,1.1,1.1,0,0,1-.3.7Zm-7.1,10a4.2,4.2,0,0,1-3.1-1.3,4.2,4.2,0,0,1-1.3-3A4.2,4.2,0,0,1,9.3,9.3,4.2,4.2,0,0,1,12.4,8a4.2,4.2,0,0,1,3,1.3,4.2,4.2,0,0,1,1.3,3.1,4.2,4.2,0,0,1-1.3,3,4.2,4.2,0,0,1-3,1.3Zm0-10.1a5.7,5.7,0,0,1,4.1,1.7,5.8,5.8,0,0,1,1.6,4.1,6,6,0,0,1-1.6,4.1,6,6,0,0,1-4.1,1.6,5.8,5.8,0,0,1-4.1-1.6,5.7,5.7,0,0,1-1.7-4.1A5.5,5.5,0,0,1,8.3,8.3a5.5,5.5,0,0,1,4.1-1.7Zm0-4.4h4.8l1.5.2.9.3.8.4.7.5h0l.5.7.4.8.3.9c.1.4.1.9.2,1.5v9.7c-.1.6-.1,1.1-.2,1.5l-.3.9a3,3,0,0,1-.4.8l-.5.7-.7.5-.8.4-.9.3-1.5.2H7.5L6,22.3,5.1,22l-.8-.4-.7-.5-.5-.7a3,3,0,0,1-.4-.8l-.3-.9c-.1-.4-.1-.9-.2-1.5V7.5c.1-.6.1-1.1.2-1.5l.3-.9a3,3,0,0,1,.4-.8l.5-.7.7-.5.8-.4L6,2.4l1.5-.2h4.9Z"/></g></g></svg>