<?xml version="1.0" encoding="utf-8"?>
<!-- Generator: Adobe Illustrator 24.3.0, SVG Export Plug-In . SVG Version: 6.00 Build 0)  -->
<svg version="1.1" id="Layer_1" xmlns="http://www.w3.org/2000/svg" xmlns:xlink="http://www.w3.org/1999/xlink" x="0px" y="0px"
	 viewBox="0 0 575.9 575.4" style="enable-background:new 0 0 575.9 575.4;" xml:space="preserve">
<style type="text/css">
	.st0{fill:#FFFFFF;}
	.st1{fill:#273D83;}
	.st2{fill:#009DDB;}
	.st3{fill:#272F68;}
</style>
<path class="st0" d="M512.7,575.4H60.3C27,575.4,0,548.4,0,515.2V60.3C0,27,27,0,60.3,0h452.4C546,0,573,27,573,60.3v454.9
	C573,548.4,546,575.4,512.7,575.4z"/>
<g id="ojK8nq_1_">
	<g>
		<g>
			<path class="st1" d="M237.8,356.4c-21.1,0-42.2-0.1-63.3,0.1c-5,0-7.8-2.5-9.9-6.5c0-2.3,0-4.6,0-6.9c2-4.1,1.9-8.5,2.6-12.9
				c7-43.4,13.8-86.8,20.7-130.2c6.5-41.3,13-82.8,19.6-124.1c0.3-1.9,0.6-3.9,1.1-5.7c1.8-6.6,7.2-11,14.1-11.1
				c37.8-0.1,75.5-0.2,113.4,0.1c15.6,0.1,31.1,2.5,45.8,8.3c28.1,11,43.5,36.2,40.3,66.3c-0.3,3.5-0.7,7-1,10.5
				c-0.2,0.2-0.4,0.4-0.6,0.7c-1-2.5-3.5-2.7-5.6-3.5c-14.3-6.2-29.6-7.8-44.9-8.1c-28.3-0.5-56.5-0.2-84.7-0.1
				c-7.6,0-12.8,4.9-13.9,12.5c-0.8,6.4-1.9,12.8-2.9,19.2c-2,12.5-4,24.9-6.1,37.4c-1.8,11.1-3.7,22.2-5.3,33.4
				c-0.8,5.7-2.3,11.4-2.2,17.2l0,0c-0.1,0.1-0.3,0.1-0.3,0.1c0,0.1,0.1,0.3,0.1,0.5c-2.2,8.1-2.9,16.3-4.3,24.5
				c-2.8,16.7-5.3,33.5-8.1,50.3C241.1,337.7,239.4,347.1,237.8,356.4z"/>
			<path class="st2" d="M237.8,356.4c1.6-9.3,3.2-18.6,4.8-28c2.7-16.7,5.3-33.6,8.1-50.3c1.3-8.2,2.1-16.5,4.3-24.5
				c0.1-0.2,0.1-0.4,0.2-0.6l0,0c3.6-6,9-8.2,15.9-8.2c17.8-0.1,35.6,1,53.3-1.4c12.9-1.7,25.4-4.8,37.1-10.5
				c36.9-17.7,53.2-49.4,59.3-87.9c0.2-0.2,0.4-0.4,0.6-0.7c14.4,7.1,22.7,18.9,26.1,34.3c3.4,15.3,1.6,30.5-2,45.6
				c-4.2,17.6-11.3,33.8-23.8,47.3c-14.3,15.3-32.4,23.2-52.6,26.9c-11,2-22.1,2.3-33.2,2.2c-9.8-0.1-14.3,3.4-15.9,13
				c-3.5,21.2-6.8,42.5-10.2,63.7c-0.3,2.3-0.7,4.5-1.3,6.8c-1.6,5.7-6.1,9.4-12.1,9.5c-18.1,0.1-36.2,0.1-54.4,0
				c-5.7,0-8.8-3.9-7.9-9.9c1.1-7.7,2.4-15.4,3.7-23C237.6,359.1,237.7,357.7,237.8,356.4z"/>
			<path class="st3" d="M420.5,145c-6.1,38.5-22.3,70.2-59.3,87.9c-11.7,5.7-24.3,8.7-37.1,10.5c-17.7,2.4-35.5,1.3-53.3,1.4
				c-6.8,0.1-12.3,2.3-15.9,8.2c-0.1-5.9,1.4-11.5,2.2-17.2c1.6-11.2,3.5-22.3,5.3-33.4c2-12.5,4.1-24.9,6.1-37.4
				c1-6.4,2.1-12.8,2.9-19.2c1-7.6,6.1-12.5,13.9-12.5c28.3-0.1,56.5-0.3,84.7,0.1c15.3,0.3,30.6,1.9,44.9,8.1
				C417,142.3,419.5,142.5,420.5,145z"/>
			<path class="st3" d="M255.1,253c0,0.2-0.1,0.4-0.2,0.6c-0.1-0.1-0.1-0.3-0.1-0.5C254.8,253.1,255,253,255.1,253z"/>
		</g>
	</g>
</g>
<path class="st1" d="M73.6,420.8c6.2,0,12.5,0,18.7,0c6.3,0.1,12.5,1,18.4,3.7c7.9,3.6,12.5,9.9,13.5,18.4c1.3,12-1.4,23.3-8.2,33.4
	c-5.8,8.5-14.3,12.9-24.2,14.8c-7,1.4-14.1,1-21.1,1c-0.9,0-1.8,0-2.6,0c-3.2,0.1-5.2,1.8-5.7,5c-1.4,8.6-2.7,17.2-4.1,25.9
	c-0.5,3.3-2.5,4.8-5.8,4.8c-5.8,0-11.6,0-17.3,0c-2.9,0-4.2-1.5-3.7-4.3c3.2-20.4,6.4-40.8,9.7-61.2c1.9-12.2,3.9-24.4,5.8-36.5
	c0.6-3.5,2.4-5,6-5C59.7,420.8,66.7,420.8,73.6,420.8C73.6,420.8,73.6,420.8,73.6,420.8z M73.9,470.7
	C73.9,470.8,73.9,470.8,73.9,470.7c2.2,0,4.3-0.1,6.5-0.2c7.9-0.6,12.6-4.2,14.4-11c0.4-1.6,0.7-3.3,0.8-5
	c0.5-7.2-2.9-11.2-10.2-11.9c-3.7-0.4-7.4-0.4-11-0.4c-2.4,0-3.5,0.9-3.9,3.3c-1.3,8-2.5,16.1-3.9,24.1c-0.1,0.9,0.1,1.2,0.9,1.1
	C69.6,470.7,71.8,470.7,73.9,470.7z"/>
<path class="st2" d="M352.5,492.2c-3.7,0-6.3,0-8.8,0c-3.1,0-5.1,1.7-5.6,4.7c-1.4,8.8-2.8,17.7-4.2,26.5c-0.5,3.4-1.6,4.4-5,4.4
	c-6,0-12,0-18,0c-2.9,0-4.2-1.6-3.7-4.5c2.3-14.5,4.6-29.1,6.9-43.6c2.2-13.7,4.3-27.3,6.5-41c0.6-4,1.3-8,1.9-12.1
	c0.6-4.3,2.4-5.9,6.7-5.9c13,0,25.9,0,38.9,0c5.7,0,11.3,0.8,16.6,2.9c9.1,3.5,14.6,10.1,15.5,19.8c1.1,11.9-1.5,23.1-8.4,33
	c-5.8,8.4-14.3,12.8-24.2,14.6C362.1,492.1,356.7,492.3,352.5,492.2z M354.1,442.2c-0.7,0-1.4,0-2.1,0s-1.4,0-2.1,0
	c-2.3,0-3.4,1-3.7,3.3c-1.3,7.9-2.5,15.8-3.8,23.8c-0.2,1.1,0,1.6,1.3,1.6c4.1-0.1,8.3,0.1,12.4-0.3c4.7-0.5,9.1-1.7,12-5.8
	c2.7-3.9,3.6-8.5,3.1-13.1c-0.5-5-3-7.5-8-8.6C360.1,442.2,357.1,442.1,354.1,442.2z"/>
<path class="st1" d="M183.8,464.3c0.3-1.8,0.6-3.2,0.8-4.6c0.4-2.3,1.4-3.2,3.8-3.2c5.8,0,11.6,0,17.3,0c2.9,0,4.2,1.5,3.7,4.3
	c-0.8,5.4-1.7,10.8-2.6,16.2c-2.3,14.4-4.6,28.7-6.8,43.1c-0.8,5.6-1.6,8.1-8.8,7.7c-4.3-0.2-8.7,0-13,0c-2.9,0-4.1-1.3-3.8-4.3
	c0.2-1.4,0.4-2.7,0.7-4.4c-2.1,1.9-4,3.6-6.2,4.9c-9.9,6-20.5,7.3-31.4,3.7c-10.4-3.4-15.9-11.5-18-21.8
	c-3.7-18.6,6.7-42.7,29.9-49.6c7.8-2.3,15.7-2.2,23.5-0.1C177.4,457.4,181.2,459.8,183.8,464.3z M165.1,474.3c-1,0.1-2,0.1-3,0.2
	c-10.5,1.7-17.6,9.6-18.1,20.2c-0.4,7,3.4,12.5,9.7,14.4c3.1,0.9,6.3,1,9.5,0.6c11.3-1.7,19.3-12.8,17.1-23.9
	C179,478.6,173.3,474.3,165.1,474.3z"/>
<path class="st2" d="M450.5,519.8c-0.7,0-1,0.6-1.4,0.9c-11.2,9-23.7,11.2-37.1,6.4c-9.2-3.3-14.2-10.7-16.4-19.9
	c-4.9-20.4,7.8-47.5,34.3-52.1c6.4-1.1,12.8-0.7,19.1,1.1c4.3,1.2,5.7,2.3,10.7,7.7c0.3-1.6,0.5-3.1,0.8-4.6
	c0.4-1.9,1.4-2.9,3.3-2.9c6.1,0,12.2,0,18.2,0c2.3,0,3.6,1.7,3.3,4c-1.1,6.9-2.2,13.8-3.3,20.7c-1.9,12.2-3.9,24.5-5.8,36.7
	c-0.3,2-0.6,3.9-1,5.9c-0.6,2.5-2.5,4.1-5.2,4.2c-5.5,0-11,0-16.5,0c-2.3,0-3.5-1.4-3.4-3.7c0-0.7,0.2-1.5,0.3-2.2
	C450.5,521.2,450.7,520.5,450.5,519.8z M440.8,474.3c-1.1,0.1-2.1,0.1-3.1,0.2c-10.2,1.8-16.9,8.8-17.9,19.1
	c-0.6,6,1.1,11.1,6.7,14.3c3.9,2.2,8.2,2.5,12.5,1.8c11.4-1.7,19.4-13.2,17-24.4C454.6,478.5,448.8,474.3,440.8,474.3z"/>
<path class="st1" d="M256.2,496.4c0.5-0.7,0.9-1.2,1.2-1.7c7.9-11.7,15.9-23.3,23.8-35c1.6-2.3,3.5-3.4,6.3-3.3
	c5.5,0.1,11.1,0.1,16.6,0c1.6,0,2.9,0.3,3.7,1.8c0.7,1.4,0.2,2.7-0.7,3.9c-20.4,29.3-40.7,58.6-61,87.8c-1.4,2-3,2.9-5.4,2.9
	c-5.8,0-11.6,0-17.3,0c-1.5,0-2.8-0.3-3.5-1.8c-0.7-1.4-0.2-2.7,0.6-3.9c6-8.3,11.8-16.7,17.8-25.1c0.8-1.1,0.9-1.9,0.5-3.2
	c-6.6-19.1-13.1-38.2-19.6-57.3c-0.3-0.9-0.7-1.8-0.5-2.7c0.4-1.6,1.4-2.5,3.1-2.5c6.2,0,12.4,0,18.6,0c2.6,0,4.2,1.6,5.1,4.5
	c2.3,7.8,4.7,15.6,7,23.4C253.7,488.3,254.9,492.2,256.2,496.4z"/>
<path class="st2" d="M516,420.8c2.6,0,5.3,0,7.9,0c3.3,0,4.4,1.4,4,4.6c-0.8,5.3-1.7,10.6-2.5,15.8c-2.1,13-4.1,26.1-6.2,39.1
	c-2.2,14.2-4.4,28.4-6.7,42.6c-0.5,3.3-2.6,4.9-6,4.9c-4.8,0-9.7,0-14.5,0c-3.1,0-4.4-1.4-3.9-4.5c1.3-8.3,2.6-16.7,3.9-25
	c1.9-12.3,3.9-24.6,5.8-36.9c2-12.6,4-25.2,6-37.7c0.3-2,1.4-2.9,3.5-2.9C510.2,420.8,513.1,420.8,516,420.8z"/>
</svg>
