<?xml version="1.0" encoding="utf-8"?>
<!-- Generator: Adobe Illustrator 25.1.0, SVG Export Plug-In . SVG Version: 6.00 Build 0)  -->
<svg version="1.1" id="Layer_1" xmlns="http://www.w3.org/2000/svg" xmlns:xlink="http://www.w3.org/1999/xlink" x="0px" y="0px"
	 viewBox="0 0 348.7 297.4" style="enable-background:new 0 0 348.7 297.4;" xml:space="preserve">
<style type="text/css">
	.st0{fill:#E62379;}
	.st1{fill:#676767;}
	.st2{fill:#2F348A;}
</style>
<path class="st0" d="M12.3,287h52.1l17-24H66.4c0,0,88.7-124.3,95.5-136.7S172,100.7,172,86.6c0-20.1-7.1-37.5-21.2-52.3
	c-14.1-14.8-32.7-22.2-55.5-22.2C72.2,12.2,52.7,20,37,35.8C21.3,51.5,13.1,71.7,12.4,96.2h23.8c1.5-19.2,7.5-34,18-44.6
	C64.8,41,78,35.7,93.9,35.7c15.1,0,27.9,5,38.3,15.1c10.4,10.1,15.6,22.1,15.6,36.1c0,11.1-2.9,21.6-8.7,31.6
	C133.3,128.5,12.3,287,12.3,287z"/>
<polygon class="st0" points="93.5,287 242.9,287 242.9,262.9 110.5,262.9 "/>
<circle class="st1" cx="131.1" cy="212.8" r="10.6"/>
<path class="st1" d="M142,202.9L270.8,22.5l0-10.3L137.2,199.4C139,200.2,140.6,201.4,142,202.9z"/>
<polygon class="st2" points="303.6,194.7 303.6,46.9 303.9,12.2 139.3,242.7 245.8,242.7 245.8,194.7 222.3,194.7 260.2,137.9 
	260.4,286.3 303.6,286.3 303.6,242.7 339,242.7 339,194.7 "/>
<path class="st1" d="M82.6,287l42.7-60.5c-1.9-0.8-3.5-1.9-4.9-3.4L75.3,287H82.6z"/>
</svg>
