<?xml version="1.0" standalone="no"?>
<!DOCTYPE svg PUBLIC "-//W3C//DTD SVG 20010904//EN"
 "http://www.w3.org/TR/2001/REC-SVG-20010904/DTD/svg10.dtd">
<svg version="1.0" xmlns="http://www.w3.org/2000/svg"
 width="698.000000pt" height="698.000000pt" viewBox="0 0 698.000000 698.000000"
 preserveAspectRatio="xMidYMid meet">
<metadata>
Created by potrace 1.14, written by Peter Selinger 2001-2017
</metadata>
<g transform="translate(0.000000,698.000000) scale(0.100000,-0.100000)"
fill="#000000" stroke="none">
<path d="M1695 6204 c-150 -20 -152 -21 -240 -44 -22 -6 -47 -12 -55 -14 -80
-20 -280 -112 -386 -179 -183 -116 -404 -343 -523 -539 -91 -150 -182 -398
-207 -558 -3 -19 -7 -42 -10 -50 -8 -22 -17 -135 -18 -215 l-1 -70 234 0 c148
0 235 4 237 10 1 5 5 35 8 65 6 65 13 112 30 197 47 232 164 458 318 615 209
212 470 319 783 321 100 1 231 -9 246 -18 3 -2 21 -7 40 -10 207 -37 443 -190
602 -393 96 -123 157 -254 188 -407 23 -113 15 -354 -15 -472 -3 -13 -8 -32
-11 -43 -26 -121 -112 -289 -236 -462 -56 -79 -105 -145 -108 -148 -3 -3 -17
-21 -31 -40 -13 -19 -28 -39 -32 -45 -11 -12 -143 -191 -166 -224 -9 -13 -27
-35 -39 -49 -13 -14 -23 -29 -23 -33 0 -5 -8 -16 -18 -26 -10 -10 -56 -70
-102 -133 -47 -63 -87 -117 -90 -120 -3 -3 -23 -30 -45 -60 -22 -30 -42 -57
-45 -60 -3 -3 -32 -41 -65 -85 -33 -44 -63 -84 -68 -90 -4 -5 -49 -64 -98
-130 -50 -66 -99 -130 -110 -143 -10 -12 -19 -26 -19 -31 0 -5 -4 -11 -8 -13
-4 -1 -21 -21 -37 -43 -17 -22 -33 -44 -38 -50 -43 -56 -187 -245 -341 -450
-104 -137 -193 -251 -198 -253 -4 -2 -8 -10 -8 -17 0 -7 -3 -15 -7 -17 -5 -1
-25 -25 -45 -53 -21 -27 -41 -54 -45 -60 -5 -5 -24 -30 -43 -55 -19 -25 -39
-50 -45 -56 -5 -6 -31 -40 -57 -75 -25 -35 -72 -98 -103 -139 -32 -41 -108
-140 -168 -220 -61 -80 -137 -179 -169 -221 -32 -42 -58 -78 -58 -80 0 -9
1044 -1 1047 8 3 7 37 56 91 128 4 6 27 39 51 75 25 36 48 67 51 70 3 3 22 30
43 60 20 30 50 74 66 97 l30 42 -140 -1 c-77 0 -143 3 -146 6 -4 3 6 23 21 43
130 182 553 777 561 791 6 9 13 19 16 22 6 5 36 47 144 204 22 31 51 72 65 91
14 18 31 41 38 51 7 11 65 93 129 184 261 371 350 498 549 785 69 99 131 188
139 198 8 9 15 19 15 21 0 2 48 75 107 162 99 147 203 341 203 378 0 9 4 16 9
16 5 0 11 10 14 23 2 12 16 65 31 117 30 108 44 188 53 298 5 66 7 257 3 257
-1 0 -4 20 -6 45 -6 59 -11 99 -18 130 -3 14 -9 41 -13 60 -4 19 -8 37 -8 40
-5 21 -37 115 -55 160 -94 238 -288 493 -490 644 -30 23 -56 44 -58 49 -2 4
-7 7 -12 7 -5 0 -42 20 -82 44 -126 74 -336 148 -488 171 -25 4 -58 9 -75 12
-62 11 -354 9 -440 -3z"/>
<path d="M5410 6202 c0 -6 -6 -17 -13 -24 -7 -7 -58 -76 -112 -153 -55 -77
-104 -145 -110 -152 -5 -6 -26 -35 -45 -63 -19 -28 -57 -82 -85 -120 -27 -38
-57 -78 -65 -90 -8 -12 -31 -44 -50 -70 -19 -27 -116 -163 -215 -302 -99 -139
-183 -254 -187 -256 -5 -2 -8 -8 -8 -13 0 -6 -5 -15 -10 -22 -6 -7 -33 -43
-61 -82 -27 -38 -55 -77 -62 -85 -7 -8 -21 -28 -31 -45 -11 -16 -23 -34 -28
-40 -5 -5 -31 -41 -58 -80 -27 -38 -56 -79 -64 -90 -80 -109 -443 -620 -451
-633 -5 -9 -13 -19 -16 -22 -7 -6 -220 -305 -234 -328 -5 -9 -14 -21 -20 -28
-13 -16 -46 -62 -65 -90 -20 -31 -139 -198 -170 -239 -31 -41 -270 -376 -342
-478 -7 -11 -46 -64 -86 -118 -79 -109 -79 -100 -11 -151 l36 -26 16 26 c8 15
23 36 32 47 8 11 59 81 113 156 53 75 105 147 114 160 10 13 59 83 110 154 51
72 96 135 100 140 5 6 63 88 131 182 67 95 158 223 202 284 44 62 94 131 110
154 126 178 149 211 154 215 3 3 26 34 50 70 25 36 48 67 53 68 4 2 8 8 8 14
0 8 23 42 63 93 4 5 25 35 47 65 21 30 47 66 57 80 204 286 352 493 372 522
47 67 545 763 553 773 8 9 170 237 255 358 33 47 34 52 35 144 0 52 -3 97 -6
100 -3 4 -6 1 -6 -5z"/>
<path d="M6070 6196 c0 -8 -4 -16 -8 -18 -5 -1 -39 -46 -76 -98 -37 -52 -72
-102 -79 -110 -7 -8 -39 -53 -72 -100 -32 -47 -63 -89 -67 -95 -5 -5 -74 -102
-154 -215 -80 -113 -152 -214 -160 -225 -8 -11 -42 -58 -75 -105 -33 -47 -67
-94 -75 -105 -8 -11 -88 -123 -179 -250 -90 -126 -183 -257 -207 -290 -24 -33
-64 -89 -89 -125 -24 -36 -50 -69 -56 -73 -7 -4 -13 -12 -13 -18 0 -5 -5 -15
-11 -22 -6 -7 -60 -82 -120 -167 -61 -85 -116 -162 -123 -171 -7 -9 -32 -42
-54 -75 -76 -108 -125 -178 -387 -543 -143 -199 -267 -372 -275 -384 -12 -17
-361 -508 -414 -582 -8 -11 -42 -58 -75 -105 -33 -47 -64 -89 -69 -95 -16 -20
-227 -317 -251 -353 -13 -20 -27 -39 -30 -42 -6 -5 -142 -195 -153 -215 -7
-12 2100 -14 2119 -2 7 5 9 17 4 35 -4 15 -4 41 -1 57 4 17 3 40 -2 53 -4 12
-4 22 0 22 7 0 6 232 -2 262 -2 10 -1 18 3 18 4 0 6 15 5 33 -5 55 -6 89 -4
179 1 48 -1 92 -5 98 -3 5 -2 10 3 10 4 0 7 21 4 48 -2 26 -4 67 -5 92 l-2 45
-225 1 c-254 2 -249 2 -235 12 6 4 15 15 20 24 6 10 118 178 250 375 132 197
242 363 244 368 2 6 7 12 10 15 4 3 38 52 76 110 37 58 71 107 74 110 3 3 12
17 19 31 8 14 24 39 37 55 l24 29 1 -1100 c0 -605 1 -1272 1 -1482 l1 -381
432 0 432 0 0 434 c-1 282 2 434 9 435 6 1 165 2 355 3 l345 1 0 478 c1 323
-3 477 -10 478 -5 1 -161 2 -345 3 -184 1 -339 4 -345 8 -7 4 -9 551 -8 1615
1 884 2 1622 2 1638 1 17 1 37 1 45 0 8 1 86 2 173 2 88 0 161 -4 164 -5 2 -8
-2 -8 -11z"/>
<path d="M2567 2407 c-50 -12 -124 -81 -142 -132 -36 -106 11 -212 121 -271
31 -16 134 -10 174 10 103 54 142 174 92 286 -37 83 -147 131 -245 107z"/>
<path d="M2200 1699 c-224 -319 -294 -418 -310 -436 -5 -7 -10 -16 -10 -22 0
-5 -3 -11 -8 -13 -7 -3 -48 -59 -131 -178 -17 -25 -76 -108 -130 -185 -92
-129 -98 -140 -78 -146 40 -11 121 1 134 19 7 9 16 22 21 27 5 6 17 24 28 40
10 17 27 39 36 49 10 11 18 25 18 32 0 7 4 14 8 16 5 2 23 26 42 53 19 28 38
55 43 60 9 11 211 297 296 420 30 44 60 85 66 92 5 6 25 33 43 60 18 26 80
113 136 193 l104 145 -39 24 c-22 12 -39 27 -39 32 0 35 -50 -27 -230 -282z"/>
<path d="M2129 1083 c-46 -65 -121 -171 -167 -236 -46 -65 -82 -121 -79 -124
8 -7 2966 -8 2973 0 4 4 9 416 5 465 -1 9 -273 12 -1325 12 l-1324 0 -83 -117z"/>
</g>
</svg>
