<svg xmlns="http://www.w3.org/2000/svg" viewBox="0 0 25.2 25.4"><defs><style>.cls-1{fill:#2b4294;}</style></defs><g id="Layer_2" data-name="Layer 2"><g id="Layer_1-2" data-name="Layer 1"><path class="cls-1" d="M25,10.1a13.4,13.4,0,0,0-1.4-3.8,12.9,12.9,0,0,0-3.7-4A12.2,12.2,0,0,0,13.3,0,10.9,10.9,0,0,0,8.9.6,12.4,12.4,0,0,0,4.4,3.1,12.6,12.6,0,0,0,1.1,7.7,12.8,12.8,0,0,0,.1,12a13.2,13.2,0,0,0,.2,2.8,14.7,14.7,0,0,0,1.4,4h.1L.3,24.2c-.1.4-.2.7-.3,1.2l.7-.2,5.9-1.6h.1A12.8,12.8,0,0,0,12,25.1a10.2,10.2,0,0,0,3.5-.3,11.9,11.9,0,0,0,6-3.3,12.2,12.2,0,0,0,3.7-7.7A15.1,15.1,0,0,0,25,10.1Zm-1.9,3.3a10.8,10.8,0,0,1-2.6,6.1A11.5,11.5,0,0,1,15,22.8a9.5,9.5,0,0,1-2.9.2A9.6,9.6,0,0,1,8,21.9l-.9-.5H6.9l-3.8,1H3a6.4,6.4,0,0,1,.2-.7c.3-1.1.6-2.1.8-3.1s0-.1,0-.2a10.9,10.9,0,0,1-.8-1.5A14,14,0,0,1,2.3,14a8.1,8.1,0,0,1,0-2.2,9.2,9.2,0,0,1,1.1-4A10.4,10.4,0,0,1,8.2,3.1a9,9,0,0,1,3.2-.9,10.2,10.2,0,0,1,4.6.5,10.6,10.6,0,0,1,4.5,2.9,10.7,10.7,0,0,1,2.4,4.9A9.7,9.7,0,0,1,23.1,13.4Z"/><path class="cls-1" d="M18.7,15.4a6.1,6.1,0,0,0-1.4-.7l-1.1-.5c-.3-.2-.5-.1-.7.2l-1,1.2c-.1.2-.3.2-.5.1l-1.2-.6a8.2,8.2,0,0,1-3.2-3.2.5.5,0,0,1,.1-.6,4.4,4.4,0,0,0,.8-1.1.5.5,0,0,0,0-.5,24.4,24.4,0,0,0-1-2.4l-.2-.4H8a1,1,0,0,0-.7.4,4.1,4.1,0,0,0-1,3.2,11.9,11.9,0,0,0,.8,2l1.5,2,1.9,1.9A11.9,11.9,0,0,0,14,18.2a5.8,5.8,0,0,0,1.8.4h1.1a4.4,4.4,0,0,0,1.5-.8l.4-.6a5.3,5.3,0,0,0,.3-1.2C19.1,15.6,19,15.5,18.7,15.4Z"/></g></g></svg>