<svg xmlns="http://www.w3.org/2000/svg" viewBox="0 0 283 201.4"><g id="Layer_2" data-name="Layer 2"><g id="Layer_1-2" data-name="Layer 1"><g id="_9BDQjC" data-name="9BDQjC"><path d="M107.3,201.4l-2.9-.2-5-.5-18.1-1.1c-12.8-.7-26-1.5-38.9-2.6C22,195.1,9,183.5,4.8,163.4a178.6,178.6,0,0,1-2.6-18.9l-.3-3.1c-.6-4.9-1-9.8-1.4-14.7L0,119.8V80.9l.3-2.4.6-5.1c.4-3.5.7-7,1-10.5.7-7.5,1.4-15.4,2.6-23.1C7.5,20.5,19.7,8,38.9,4.5A131.4,131.4,0,0,1,55.6,2.6l20-.7C100,1.1,125.1.3,149.9,0c37.2-.3,65.8,1,92.5,4.2,20.5,2.5,33,13.8,37.1,33.5a161.3,161.3,0,0,1,3.2,27.8c.4,21.2.4,43.4,0,66.2a208.2,208.2,0,0,1-2.8,30.3c-3.4,20.5-16.7,33-37.2,35-11.6,1.2-23.3,1.9-34.7,2.6l-14.3.9-10.5.6-4.8.3ZM10,119.6l.5,6.3c.4,4.8.7,9.7,1.3,14.5l.3,3a181.2,181.2,0,0,0,2.5,18c3.3,15.8,12.7,24.2,28.7,25.6,12.8,1.2,25.9,1.9,38.6,2.7l18.2,1.1,5.4.5,2.3.2h70.3l4.5-.3,10.4-.6,14.4-1c11.3-.7,22.9-1.4,34.3-2.5,16.1-1.6,25.7-10.6,28.3-26.7a201.7,201.7,0,0,0,2.7-28.9c.4-22.6.4-44.8,0-65.8a150.4,150.4,0,0,0-3-26c-3.2-15.5-12.2-23.6-28.5-25.6C214.9,11,186.8,9.7,150,10c-24.7.2-49.8,1.1-74,1.9l-20,.7a109.1,109.1,0,0,0-15.4,1.7C25.5,17,16.7,26.1,14.4,41.3c-1.2,7.4-1.9,15.1-2.6,22.5-.3,3.6-.6,7.1-1,10.7l-.6,5.1L10,81.8Zm100.3,30.6V51.1l86.3,49.5Zm9.9-81.9V133l56.3-32.4Z"/></g></g></g></svg>